<mxfile host="app.diagrams.net" modified="2020-12-16T04:00:56.552Z" agent="5.0 (Windows NT 10.0; WOW64) AppleWebKit/537.36 (KHTML, like Gecko) coc_coc_browser/91.0.146 Chrome/85.0.4183.146 Safari/537.36" etag="N_csqOyCxvdGbHhJm81l" version="14.0.3" type="github" pages="7">
  <diagram id="C5RBs43oDa-KdzZeNtuy" name="Add form">
    <mxGraphModel dx="1121" dy="608" grid="0" gridSize="1" guides="1" tooltips="1" connect="1" arrows="1" fold="1" page="1" pageScale="1" pageWidth="827" pageHeight="1169" background="none" math="0" shadow="0">
      <root>
        <mxCell id="WIyWlLk6GJQsqaUBKTNV-0" />
        <mxCell id="WIyWlLk6GJQsqaUBKTNV-1" parent="WIyWlLk6GJQsqaUBKTNV-0" />
        <mxCell id="SO2iBS88qoJphTOs-d70-0" value="RequestDto" style="swimlane;fontStyle=2;align=center;verticalAlign=top;childLayout=stackLayout;horizontal=1;startSize=26;horizontalStack=0;resizeParent=1;resizeLast=0;collapsible=1;marginBottom=0;rounded=0;shadow=0;strokeWidth=1;" parent="WIyWlLk6GJQsqaUBKTNV-1" vertex="1">
          <mxGeometry x="40" y="80" width="160" height="104" as="geometry">
            <mxRectangle x="230" y="140" width="160" height="26" as="alternateBounds" />
          </mxGeometry>
        </mxCell>
        <mxCell id="SO2iBS88qoJphTOs-d70-1" value="code" style="text;align=left;verticalAlign=top;spacingLeft=4;spacingRight=4;overflow=hidden;rotatable=0;points=[[0,0.5],[1,0.5]];portConstraint=eastwest;" parent="SO2iBS88qoJphTOs-d70-0" vertex="1">
          <mxGeometry y="26" width="160" height="26" as="geometry" />
        </mxCell>
        <mxCell id="SO2iBS88qoJphTOs-d70-2" value="name" style="text;align=left;verticalAlign=top;spacingLeft=4;spacingRight=4;overflow=hidden;rotatable=0;points=[[0,0.5],[1,0.5]];portConstraint=eastwest;rounded=0;shadow=0;html=0;" parent="SO2iBS88qoJphTOs-d70-0" vertex="1">
          <mxGeometry y="52" width="160" height="26" as="geometry" />
        </mxCell>
        <mxCell id="SO2iBS88qoJphTOs-d70-3" value="status" style="text;align=left;verticalAlign=top;spacingLeft=4;spacingRight=4;overflow=hidden;rotatable=0;points=[[0,0.5],[1,0.5]];portConstraint=eastwest;rounded=0;shadow=0;html=0;" parent="SO2iBS88qoJphTOs-d70-0" vertex="1">
          <mxGeometry y="78" width="160" height="26" as="geometry" />
        </mxCell>
        <mxCell id="SO2iBS88qoJphTOs-d70-6" value="&lt;&lt;interface&gt;&gt;&#xa;Repository" style="swimlane;fontStyle=0;align=center;verticalAlign=top;childLayout=stackLayout;horizontal=1;startSize=41;horizontalStack=0;resizeParent=1;resizeLast=0;collapsible=1;marginBottom=0;rounded=0;shadow=0;strokeWidth=1;" parent="WIyWlLk6GJQsqaUBKTNV-1" vertex="1">
          <mxGeometry x="600" y="350" width="160" height="90" as="geometry">
            <mxRectangle x="590" y="380" width="160" height="26" as="alternateBounds" />
          </mxGeometry>
        </mxCell>
        <mxCell id="SO2iBS88qoJphTOs-d70-7" value="add (Document)" style="text;align=left;verticalAlign=top;spacingLeft=4;spacingRight=4;overflow=hidden;rotatable=0;points=[[0,0.5],[1,0.5]];portConstraint=eastwest;" parent="SO2iBS88qoJphTOs-d70-6" vertex="1">
          <mxGeometry y="41" width="160" height="34" as="geometry" />
        </mxCell>
        <mxCell id="SO2iBS88qoJphTOs-d70-9" value="" style="line;html=1;strokeWidth=1;align=left;verticalAlign=middle;spacingTop=-1;spacingLeft=3;spacingRight=3;rotatable=0;labelPosition=right;points=[];portConstraint=eastwest;" parent="SO2iBS88qoJphTOs-d70-6" vertex="1">
          <mxGeometry y="75" width="160" height="8" as="geometry" />
        </mxCell>
        <mxCell id="SO2iBS88qoJphTOs-d70-12" style="edgeStyle=orthogonalEdgeStyle;rounded=0;orthogonalLoop=1;jettySize=auto;html=1;entryX=0.5;entryY=0;entryDx=0;entryDy=0;endArrow=none;endFill=0;strokeColor=#000000;" parent="WIyWlLk6GJQsqaUBKTNV-1" source="SO2iBS88qoJphTOs-d70-13" target="SO2iBS88qoJphTOs-d70-6" edge="1">
          <mxGeometry relative="1" as="geometry" />
        </mxCell>
        <mxCell id="SO2iBS88qoJphTOs-d70-13" value="Service" style="swimlane;fontStyle=0;align=center;verticalAlign=top;childLayout=stackLayout;horizontal=1;startSize=26;horizontalStack=0;resizeParent=1;resizeLast=0;collapsible=1;marginBottom=0;rounded=0;shadow=0;strokeWidth=1;" parent="WIyWlLk6GJQsqaUBKTNV-1" vertex="1">
          <mxGeometry x="600" y="80" width="160" height="70" as="geometry">
            <mxRectangle x="340" y="380" width="170" height="26" as="alternateBounds" />
          </mxGeometry>
        </mxCell>
        <mxCell id="SO2iBS88qoJphTOs-d70-14" value="repository" style="text;align=left;verticalAlign=top;spacingLeft=4;spacingRight=4;overflow=hidden;rotatable=0;points=[[0,0.5],[1,0.5]];portConstraint=eastwest;" parent="SO2iBS88qoJphTOs-d70-13" vertex="1">
          <mxGeometry y="26" width="160" height="26" as="geometry" />
        </mxCell>
        <mxCell id="SO2iBS88qoJphTOs-d70-15" value="" style="line;html=1;strokeWidth=1;align=left;verticalAlign=middle;spacingTop=-1;spacingLeft=3;spacingRight=3;rotatable=0;labelPosition=right;points=[];portConstraint=eastwest;" parent="SO2iBS88qoJphTOs-d70-13" vertex="1">
          <mxGeometry y="52" width="160" height="8" as="geometry" />
        </mxCell>
        <mxCell id="SO2iBS88qoJphTOs-d70-16" value="Controller" style="swimlane;fontStyle=0;align=center;verticalAlign=top;childLayout=stackLayout;horizontal=1;startSize=26;horizontalStack=0;resizeParent=1;resizeLast=0;collapsible=1;marginBottom=0;rounded=0;shadow=0;strokeWidth=1;" parent="WIyWlLk6GJQsqaUBKTNV-1" vertex="1">
          <mxGeometry x="320" y="80" width="160" height="120" as="geometry">
            <mxRectangle x="550" y="140" width="160" height="26" as="alternateBounds" />
          </mxGeometry>
        </mxCell>
        <mxCell id="SO2iBS88qoJphTOs-d70-17" value="logger" style="text;align=left;verticalAlign=top;spacingLeft=4;spacingRight=4;overflow=hidden;rotatable=0;points=[[0,0.5],[1,0.5]];portConstraint=eastwest;" parent="SO2iBS88qoJphTOs-d70-16" vertex="1">
          <mxGeometry y="26" width="160" height="26" as="geometry" />
        </mxCell>
        <mxCell id="SO2iBS88qoJphTOs-d70-18" value="service" style="text;align=left;verticalAlign=top;spacingLeft=4;spacingRight=4;overflow=hidden;rotatable=0;points=[[0,0.5],[1,0.5]];portConstraint=eastwest;rounded=0;shadow=0;html=0;" parent="SO2iBS88qoJphTOs-d70-16" vertex="1">
          <mxGeometry y="52" width="160" height="26" as="geometry" />
        </mxCell>
        <mxCell id="SO2iBS88qoJphTOs-d70-22" value="" style="line;html=1;strokeWidth=1;align=left;verticalAlign=middle;spacingTop=-1;spacingLeft=3;spacingRight=3;rotatable=0;labelPosition=right;points=[];portConstraint=eastwest;" parent="SO2iBS88qoJphTOs-d70-16" vertex="1">
          <mxGeometry y="78" width="160" height="8" as="geometry" />
        </mxCell>
        <mxCell id="SO2iBS88qoJphTOs-d70-23" value="add (RequestDto)" style="text;align=left;verticalAlign=top;spacingLeft=4;spacingRight=4;overflow=hidden;rotatable=0;points=[[0,0.5],[1,0.5]];portConstraint=eastwest;" parent="SO2iBS88qoJphTOs-d70-16" vertex="1">
          <mxGeometry y="86" width="160" height="26" as="geometry" />
        </mxCell>
        <mxCell id="SO2iBS88qoJphTOs-d70-37" style="edgeStyle=orthogonalEdgeStyle;rounded=0;orthogonalLoop=1;jettySize=auto;html=1;entryX=0.5;entryY=1;entryDx=0;entryDy=0;" parent="WIyWlLk6GJQsqaUBKTNV-1" source="SO2iBS88qoJphTOs-d70-25" target="SO2iBS88qoJphTOs-d70-29" edge="1">
          <mxGeometry relative="1" as="geometry" />
        </mxCell>
        <mxCell id="SO2iBS88qoJphTOs-d70-25" value="Document" style="swimlane;fontStyle=0;align=center;verticalAlign=top;childLayout=stackLayout;horizontal=1;startSize=26;horizontalStack=0;resizeParent=1;resizeLast=0;collapsible=1;marginBottom=0;rounded=0;shadow=0;strokeWidth=1;" parent="WIyWlLk6GJQsqaUBKTNV-1" vertex="1">
          <mxGeometry x="320" y="370" width="160" height="70" as="geometry">
            <mxRectangle x="340" y="380" width="170" height="26" as="alternateBounds" />
          </mxGeometry>
        </mxCell>
        <mxCell id="SO2iBS88qoJphTOs-d70-26" value="form" style="text;align=left;verticalAlign=top;spacingLeft=4;spacingRight=4;overflow=hidden;rotatable=0;points=[[0,0.5],[1,0.5]];portConstraint=eastwest;" parent="SO2iBS88qoJphTOs-d70-25" vertex="1">
          <mxGeometry y="26" width="160" height="26" as="geometry" />
        </mxCell>
        <mxCell id="SO2iBS88qoJphTOs-d70-27" value="" style="line;html=1;strokeWidth=1;align=left;verticalAlign=middle;spacingTop=-1;spacingLeft=3;spacingRight=3;rotatable=0;labelPosition=right;points=[];portConstraint=eastwest;" parent="SO2iBS88qoJphTOs-d70-25" vertex="1">
          <mxGeometry y="52" width="160" height="8" as="geometry" />
        </mxCell>
        <mxCell id="SO2iBS88qoJphTOs-d70-36" style="edgeStyle=orthogonalEdgeStyle;rounded=0;orthogonalLoop=1;jettySize=auto;html=1;entryX=0.5;entryY=1;entryDx=0;entryDy=0;" parent="WIyWlLk6GJQsqaUBKTNV-1" source="SO2iBS88qoJphTOs-d70-29" target="SO2iBS88qoJphTOs-d70-16" edge="1">
          <mxGeometry relative="1" as="geometry" />
        </mxCell>
        <mxCell id="SO2iBS88qoJphTOs-d70-29" value="ResponseDto" style="swimlane;fontStyle=0;align=center;verticalAlign=top;childLayout=stackLayout;horizontal=1;startSize=26;horizontalStack=0;resizeParent=1;resizeLast=0;collapsible=1;marginBottom=0;rounded=0;shadow=0;strokeWidth=1;" parent="WIyWlLk6GJQsqaUBKTNV-1" vertex="1">
          <mxGeometry x="320" y="250" width="160" height="70" as="geometry">
            <mxRectangle x="340" y="380" width="170" height="26" as="alternateBounds" />
          </mxGeometry>
        </mxCell>
        <mxCell id="SO2iBS88qoJphTOs-d70-30" value="id" style="text;align=left;verticalAlign=top;spacingLeft=4;spacingRight=4;overflow=hidden;rotatable=0;points=[[0,0.5],[1,0.5]];portConstraint=eastwest;" parent="SO2iBS88qoJphTOs-d70-29" vertex="1">
          <mxGeometry y="26" width="160" height="26" as="geometry" />
        </mxCell>
        <mxCell id="SO2iBS88qoJphTOs-d70-31" value="" style="line;html=1;strokeWidth=1;align=left;verticalAlign=middle;spacingTop=-1;spacingLeft=3;spacingRight=3;rotatable=0;labelPosition=right;points=[];portConstraint=eastwest;" parent="SO2iBS88qoJphTOs-d70-29" vertex="1">
          <mxGeometry y="52" width="160" height="8" as="geometry" />
        </mxCell>
        <mxCell id="SO2iBS88qoJphTOs-d70-32" value="" style="endArrow=none;html=1;exitX=1.006;exitY=-0.154;exitDx=0;exitDy=0;entryX=-0.006;entryY=-0.154;entryDx=0;entryDy=0;exitPerimeter=0;entryPerimeter=0;" parent="WIyWlLk6GJQsqaUBKTNV-1" source="SO2iBS88qoJphTOs-d70-2" target="SO2iBS88qoJphTOs-d70-18" edge="1">
          <mxGeometry width="50" height="50" relative="1" as="geometry">
            <mxPoint x="220" y="230" as="sourcePoint" />
            <mxPoint x="300" y="159" as="targetPoint" />
          </mxGeometry>
        </mxCell>
        <mxCell id="SO2iBS88qoJphTOs-d70-33" style="edgeStyle=orthogonalEdgeStyle;rounded=0;orthogonalLoop=1;jettySize=auto;html=1;entryX=1;entryY=0.5;entryDx=0;entryDy=0;endArrow=classic;endFill=1;strokeColor=#000000;" parent="WIyWlLk6GJQsqaUBKTNV-1" target="SO2iBS88qoJphTOs-d70-25" edge="1">
          <mxGeometry relative="1" as="geometry">
            <mxPoint x="600" y="408" as="sourcePoint" />
            <Array as="points">
              <mxPoint x="600" y="405" />
            </Array>
          </mxGeometry>
        </mxCell>
        <mxCell id="SO2iBS88qoJphTOs-d70-35" style="edgeStyle=orthogonalEdgeStyle;rounded=0;orthogonalLoop=1;jettySize=auto;html=1;entryX=0;entryY=0.5;entryDx=0;entryDy=0;endArrow=none;endFill=0;" parent="WIyWlLk6GJQsqaUBKTNV-1" target="SO2iBS88qoJphTOs-d70-14" edge="1">
          <mxGeometry relative="1" as="geometry">
            <Array as="points">
              <mxPoint x="480" y="119" />
            </Array>
            <mxPoint x="480" y="184" as="sourcePoint" />
          </mxGeometry>
        </mxCell>
      </root>
    </mxGraphModel>
  </diagram>
  <diagram name="Update form" id="lhGFe6kVm3_TdmyKvCB3">
    <mxGraphModel dx="1121" dy="608" grid="0" gridSize="1" guides="1" tooltips="1" connect="1" arrows="1" fold="1" page="1" pageScale="1" pageWidth="827" pageHeight="1169" background="none" math="0" shadow="0">
      <root>
        <mxCell id="Ie3P2LoiS-n00ZU9N3Ox-0" />
        <mxCell id="Ie3P2LoiS-n00ZU9N3Ox-1" parent="Ie3P2LoiS-n00ZU9N3Ox-0" />
        <mxCell id="Ie3P2LoiS-n00ZU9N3Ox-2" value="RequestDto" style="swimlane;fontStyle=2;align=center;verticalAlign=top;childLayout=stackLayout;horizontal=1;startSize=26;horizontalStack=0;resizeParent=1;resizeLast=0;collapsible=1;marginBottom=0;rounded=0;shadow=0;strokeWidth=1;" vertex="1" parent="Ie3P2LoiS-n00ZU9N3Ox-1">
          <mxGeometry x="40" y="80" width="160" height="141" as="geometry">
            <mxRectangle x="230" y="140" width="160" height="26" as="alternateBounds" />
          </mxGeometry>
        </mxCell>
        <mxCell id="rgvGJgZFrHw5mYHsbc41-0" value="id" style="text;align=left;verticalAlign=top;spacingLeft=4;spacingRight=4;overflow=hidden;rotatable=0;points=[[0,0.5],[1,0.5]];portConstraint=eastwest;rounded=0;shadow=0;html=0;" vertex="1" parent="Ie3P2LoiS-n00ZU9N3Ox-2">
          <mxGeometry y="26" width="160" height="26" as="geometry" />
        </mxCell>
        <mxCell id="Ie3P2LoiS-n00ZU9N3Ox-3" value="code" style="text;align=left;verticalAlign=top;spacingLeft=4;spacingRight=4;overflow=hidden;rotatable=0;points=[[0,0.5],[1,0.5]];portConstraint=eastwest;" vertex="1" parent="Ie3P2LoiS-n00ZU9N3Ox-2">
          <mxGeometry y="52" width="160" height="26" as="geometry" />
        </mxCell>
        <mxCell id="Ie3P2LoiS-n00ZU9N3Ox-4" value="name" style="text;align=left;verticalAlign=top;spacingLeft=4;spacingRight=4;overflow=hidden;rotatable=0;points=[[0,0.5],[1,0.5]];portConstraint=eastwest;rounded=0;shadow=0;html=0;" vertex="1" parent="Ie3P2LoiS-n00ZU9N3Ox-2">
          <mxGeometry y="78" width="160" height="26" as="geometry" />
        </mxCell>
        <mxCell id="Ie3P2LoiS-n00ZU9N3Ox-5" value="status" style="text;align=left;verticalAlign=top;spacingLeft=4;spacingRight=4;overflow=hidden;rotatable=0;points=[[0,0.5],[1,0.5]];portConstraint=eastwest;rounded=0;shadow=0;html=0;" vertex="1" parent="Ie3P2LoiS-n00ZU9N3Ox-2">
          <mxGeometry y="104" width="160" height="26" as="geometry" />
        </mxCell>
        <mxCell id="Ie3P2LoiS-n00ZU9N3Ox-6" value="&lt;&lt;interface&gt;&gt;&#xa;Repository" style="swimlane;fontStyle=0;align=center;verticalAlign=top;childLayout=stackLayout;horizontal=1;startSize=41;horizontalStack=0;resizeParent=1;resizeLast=0;collapsible=1;marginBottom=0;rounded=0;shadow=0;strokeWidth=1;" vertex="1" parent="Ie3P2LoiS-n00ZU9N3Ox-1">
          <mxGeometry x="600" y="350" width="160" height="90" as="geometry">
            <mxRectangle x="590" y="380" width="160" height="26" as="alternateBounds" />
          </mxGeometry>
        </mxCell>
        <mxCell id="Ie3P2LoiS-n00ZU9N3Ox-7" value="update (Document)" style="text;align=left;verticalAlign=top;spacingLeft=4;spacingRight=4;overflow=hidden;rotatable=0;points=[[0,0.5],[1,0.5]];portConstraint=eastwest;" vertex="1" parent="Ie3P2LoiS-n00ZU9N3Ox-6">
          <mxGeometry y="41" width="160" height="34" as="geometry" />
        </mxCell>
        <mxCell id="Ie3P2LoiS-n00ZU9N3Ox-8" value="" style="line;html=1;strokeWidth=1;align=left;verticalAlign=middle;spacingTop=-1;spacingLeft=3;spacingRight=3;rotatable=0;labelPosition=right;points=[];portConstraint=eastwest;" vertex="1" parent="Ie3P2LoiS-n00ZU9N3Ox-6">
          <mxGeometry y="75" width="160" height="8" as="geometry" />
        </mxCell>
        <mxCell id="Ie3P2LoiS-n00ZU9N3Ox-9" style="edgeStyle=orthogonalEdgeStyle;rounded=0;orthogonalLoop=1;jettySize=auto;html=1;entryX=0.5;entryY=0;entryDx=0;entryDy=0;endArrow=none;endFill=0;strokeColor=#000000;" edge="1" parent="Ie3P2LoiS-n00ZU9N3Ox-1" source="Ie3P2LoiS-n00ZU9N3Ox-10" target="Ie3P2LoiS-n00ZU9N3Ox-6">
          <mxGeometry relative="1" as="geometry" />
        </mxCell>
        <mxCell id="Ie3P2LoiS-n00ZU9N3Ox-10" value="Service" style="swimlane;fontStyle=0;align=center;verticalAlign=top;childLayout=stackLayout;horizontal=1;startSize=26;horizontalStack=0;resizeParent=1;resizeLast=0;collapsible=1;marginBottom=0;rounded=0;shadow=0;strokeWidth=1;" vertex="1" parent="Ie3P2LoiS-n00ZU9N3Ox-1">
          <mxGeometry x="600" y="80" width="160" height="70" as="geometry">
            <mxRectangle x="340" y="380" width="170" height="26" as="alternateBounds" />
          </mxGeometry>
        </mxCell>
        <mxCell id="Ie3P2LoiS-n00ZU9N3Ox-11" value="repository" style="text;align=left;verticalAlign=top;spacingLeft=4;spacingRight=4;overflow=hidden;rotatable=0;points=[[0,0.5],[1,0.5]];portConstraint=eastwest;" vertex="1" parent="Ie3P2LoiS-n00ZU9N3Ox-10">
          <mxGeometry y="26" width="160" height="26" as="geometry" />
        </mxCell>
        <mxCell id="Ie3P2LoiS-n00ZU9N3Ox-12" value="" style="line;html=1;strokeWidth=1;align=left;verticalAlign=middle;spacingTop=-1;spacingLeft=3;spacingRight=3;rotatable=0;labelPosition=right;points=[];portConstraint=eastwest;" vertex="1" parent="Ie3P2LoiS-n00ZU9N3Ox-10">
          <mxGeometry y="52" width="160" height="8" as="geometry" />
        </mxCell>
        <mxCell id="Ie3P2LoiS-n00ZU9N3Ox-13" value="Controller" style="swimlane;fontStyle=0;align=center;verticalAlign=top;childLayout=stackLayout;horizontal=1;startSize=26;horizontalStack=0;resizeParent=1;resizeLast=0;collapsible=1;marginBottom=0;rounded=0;shadow=0;strokeWidth=1;" vertex="1" parent="Ie3P2LoiS-n00ZU9N3Ox-1">
          <mxGeometry x="320" y="80" width="160" height="120" as="geometry">
            <mxRectangle x="550" y="140" width="160" height="26" as="alternateBounds" />
          </mxGeometry>
        </mxCell>
        <mxCell id="Ie3P2LoiS-n00ZU9N3Ox-14" value="logger" style="text;align=left;verticalAlign=top;spacingLeft=4;spacingRight=4;overflow=hidden;rotatable=0;points=[[0,0.5],[1,0.5]];portConstraint=eastwest;" vertex="1" parent="Ie3P2LoiS-n00ZU9N3Ox-13">
          <mxGeometry y="26" width="160" height="26" as="geometry" />
        </mxCell>
        <mxCell id="Ie3P2LoiS-n00ZU9N3Ox-15" value="service" style="text;align=left;verticalAlign=top;spacingLeft=4;spacingRight=4;overflow=hidden;rotatable=0;points=[[0,0.5],[1,0.5]];portConstraint=eastwest;rounded=0;shadow=0;html=0;" vertex="1" parent="Ie3P2LoiS-n00ZU9N3Ox-13">
          <mxGeometry y="52" width="160" height="26" as="geometry" />
        </mxCell>
        <mxCell id="Ie3P2LoiS-n00ZU9N3Ox-16" value="" style="line;html=1;strokeWidth=1;align=left;verticalAlign=middle;spacingTop=-1;spacingLeft=3;spacingRight=3;rotatable=0;labelPosition=right;points=[];portConstraint=eastwest;" vertex="1" parent="Ie3P2LoiS-n00ZU9N3Ox-13">
          <mxGeometry y="78" width="160" height="8" as="geometry" />
        </mxCell>
        <mxCell id="Ie3P2LoiS-n00ZU9N3Ox-17" value="update (RequestDto)" style="text;align=left;verticalAlign=top;spacingLeft=4;spacingRight=4;overflow=hidden;rotatable=0;points=[[0,0.5],[1,0.5]];portConstraint=eastwest;" vertex="1" parent="Ie3P2LoiS-n00ZU9N3Ox-13">
          <mxGeometry y="86" width="160" height="26" as="geometry" />
        </mxCell>
        <mxCell id="Ie3P2LoiS-n00ZU9N3Ox-18" style="edgeStyle=orthogonalEdgeStyle;rounded=0;orthogonalLoop=1;jettySize=auto;html=1;entryX=0.5;entryY=1;entryDx=0;entryDy=0;" edge="1" parent="Ie3P2LoiS-n00ZU9N3Ox-1" source="Ie3P2LoiS-n00ZU9N3Ox-19" target="Ie3P2LoiS-n00ZU9N3Ox-23">
          <mxGeometry relative="1" as="geometry" />
        </mxCell>
        <mxCell id="Ie3P2LoiS-n00ZU9N3Ox-19" value="Document" style="swimlane;fontStyle=0;align=center;verticalAlign=top;childLayout=stackLayout;horizontal=1;startSize=26;horizontalStack=0;resizeParent=1;resizeLast=0;collapsible=1;marginBottom=0;rounded=0;shadow=0;strokeWidth=1;" vertex="1" parent="Ie3P2LoiS-n00ZU9N3Ox-1">
          <mxGeometry x="320" y="370" width="160" height="70" as="geometry">
            <mxRectangle x="340" y="380" width="170" height="26" as="alternateBounds" />
          </mxGeometry>
        </mxCell>
        <mxCell id="Ie3P2LoiS-n00ZU9N3Ox-20" value="form" style="text;align=left;verticalAlign=top;spacingLeft=4;spacingRight=4;overflow=hidden;rotatable=0;points=[[0,0.5],[1,0.5]];portConstraint=eastwest;" vertex="1" parent="Ie3P2LoiS-n00ZU9N3Ox-19">
          <mxGeometry y="26" width="160" height="26" as="geometry" />
        </mxCell>
        <mxCell id="Ie3P2LoiS-n00ZU9N3Ox-21" value="" style="line;html=1;strokeWidth=1;align=left;verticalAlign=middle;spacingTop=-1;spacingLeft=3;spacingRight=3;rotatable=0;labelPosition=right;points=[];portConstraint=eastwest;" vertex="1" parent="Ie3P2LoiS-n00ZU9N3Ox-19">
          <mxGeometry y="52" width="160" height="8" as="geometry" />
        </mxCell>
        <mxCell id="Ie3P2LoiS-n00ZU9N3Ox-22" style="edgeStyle=orthogonalEdgeStyle;rounded=0;orthogonalLoop=1;jettySize=auto;html=1;entryX=0.5;entryY=1;entryDx=0;entryDy=0;" edge="1" parent="Ie3P2LoiS-n00ZU9N3Ox-1" source="Ie3P2LoiS-n00ZU9N3Ox-23" target="Ie3P2LoiS-n00ZU9N3Ox-13">
          <mxGeometry relative="1" as="geometry" />
        </mxCell>
        <mxCell id="Ie3P2LoiS-n00ZU9N3Ox-23" value="ResponseDto" style="swimlane;fontStyle=0;align=center;verticalAlign=top;childLayout=stackLayout;horizontal=1;startSize=26;horizontalStack=0;resizeParent=1;resizeLast=0;collapsible=1;marginBottom=0;rounded=0;shadow=0;strokeWidth=1;" vertex="1" parent="Ie3P2LoiS-n00ZU9N3Ox-1">
          <mxGeometry x="320" y="250" width="160" height="70" as="geometry">
            <mxRectangle x="340" y="380" width="170" height="26" as="alternateBounds" />
          </mxGeometry>
        </mxCell>
        <mxCell id="Ie3P2LoiS-n00ZU9N3Ox-24" value="affectedRows" style="text;align=left;verticalAlign=top;spacingLeft=4;spacingRight=4;overflow=hidden;rotatable=0;points=[[0,0.5],[1,0.5]];portConstraint=eastwest;" vertex="1" parent="Ie3P2LoiS-n00ZU9N3Ox-23">
          <mxGeometry y="26" width="160" height="26" as="geometry" />
        </mxCell>
        <mxCell id="Ie3P2LoiS-n00ZU9N3Ox-25" value="" style="line;html=1;strokeWidth=1;align=left;verticalAlign=middle;spacingTop=-1;spacingLeft=3;spacingRight=3;rotatable=0;labelPosition=right;points=[];portConstraint=eastwest;" vertex="1" parent="Ie3P2LoiS-n00ZU9N3Ox-23">
          <mxGeometry y="52" width="160" height="8" as="geometry" />
        </mxCell>
        <mxCell id="Ie3P2LoiS-n00ZU9N3Ox-26" value="" style="endArrow=none;html=1;exitX=1.013;exitY=0.846;exitDx=0;exitDy=0;entryX=-0.006;entryY=-0.154;entryDx=0;entryDy=0;exitPerimeter=0;entryPerimeter=0;" edge="1" parent="Ie3P2LoiS-n00ZU9N3Ox-1" source="rgvGJgZFrHw5mYHsbc41-0" target="Ie3P2LoiS-n00ZU9N3Ox-15">
          <mxGeometry width="50" height="50" relative="1" as="geometry">
            <mxPoint x="220" y="230" as="sourcePoint" />
            <mxPoint x="300" y="159" as="targetPoint" />
          </mxGeometry>
        </mxCell>
        <mxCell id="Ie3P2LoiS-n00ZU9N3Ox-27" style="edgeStyle=orthogonalEdgeStyle;rounded=0;orthogonalLoop=1;jettySize=auto;html=1;entryX=1;entryY=0.5;entryDx=0;entryDy=0;endArrow=classic;endFill=1;strokeColor=#000000;" edge="1" parent="Ie3P2LoiS-n00ZU9N3Ox-1" target="Ie3P2LoiS-n00ZU9N3Ox-19">
          <mxGeometry relative="1" as="geometry">
            <mxPoint x="600" y="408" as="sourcePoint" />
            <Array as="points">
              <mxPoint x="600" y="405" />
            </Array>
          </mxGeometry>
        </mxCell>
        <mxCell id="Ie3P2LoiS-n00ZU9N3Ox-28" style="edgeStyle=orthogonalEdgeStyle;rounded=0;orthogonalLoop=1;jettySize=auto;html=1;entryX=0;entryY=0.5;entryDx=0;entryDy=0;endArrow=none;endFill=0;" edge="1" parent="Ie3P2LoiS-n00ZU9N3Ox-1" target="Ie3P2LoiS-n00ZU9N3Ox-11">
          <mxGeometry relative="1" as="geometry">
            <Array as="points">
              <mxPoint x="480" y="119" />
            </Array>
            <mxPoint x="480" y="184" as="sourcePoint" />
          </mxGeometry>
        </mxCell>
      </root>
    </mxGraphModel>
  </diagram>
  <diagram name="Delete form" id="yqfT1hDBGSiRGBRV0yxz">
    <mxGraphModel dx="1121" dy="608" grid="0" gridSize="1" guides="1" tooltips="1" connect="1" arrows="1" fold="1" page="1" pageScale="1" pageWidth="827" pageHeight="1169" background="none" math="0" shadow="0">
      <root>
        <mxCell id="K-yzalr9wQonv3SJ-tsn-0" />
        <mxCell id="K-yzalr9wQonv3SJ-tsn-1" parent="K-yzalr9wQonv3SJ-tsn-0" />
        <mxCell id="K-yzalr9wQonv3SJ-tsn-2" value="RequestDto" style="swimlane;fontStyle=2;align=center;verticalAlign=top;childLayout=stackLayout;horizontal=1;startSize=26;horizontalStack=0;resizeParent=1;resizeLast=0;collapsible=1;marginBottom=0;rounded=0;shadow=0;strokeWidth=1;" vertex="1" parent="K-yzalr9wQonv3SJ-tsn-1">
          <mxGeometry x="40" y="80" width="160" height="58" as="geometry">
            <mxRectangle x="230" y="140" width="160" height="26" as="alternateBounds" />
          </mxGeometry>
        </mxCell>
        <mxCell id="K-yzalr9wQonv3SJ-tsn-3" value="id" style="text;align=left;verticalAlign=top;spacingLeft=4;spacingRight=4;overflow=hidden;rotatable=0;points=[[0,0.5],[1,0.5]];portConstraint=eastwest;rounded=0;shadow=0;html=0;" vertex="1" parent="K-yzalr9wQonv3SJ-tsn-2">
          <mxGeometry y="26" width="160" height="26" as="geometry" />
        </mxCell>
        <mxCell id="K-yzalr9wQonv3SJ-tsn-7" value="&lt;&lt;interface&gt;&gt;&#xa;Repository" style="swimlane;fontStyle=0;align=center;verticalAlign=top;childLayout=stackLayout;horizontal=1;startSize=41;horizontalStack=0;resizeParent=1;resizeLast=0;collapsible=1;marginBottom=0;rounded=0;shadow=0;strokeWidth=1;" vertex="1" parent="K-yzalr9wQonv3SJ-tsn-1">
          <mxGeometry x="600" y="350" width="160" height="90" as="geometry">
            <mxRectangle x="590" y="380" width="160" height="26" as="alternateBounds" />
          </mxGeometry>
        </mxCell>
        <mxCell id="K-yzalr9wQonv3SJ-tsn-8" value="delete (Document)" style="text;align=left;verticalAlign=top;spacingLeft=4;spacingRight=4;overflow=hidden;rotatable=0;points=[[0,0.5],[1,0.5]];portConstraint=eastwest;" vertex="1" parent="K-yzalr9wQonv3SJ-tsn-7">
          <mxGeometry y="41" width="160" height="34" as="geometry" />
        </mxCell>
        <mxCell id="K-yzalr9wQonv3SJ-tsn-9" value="" style="line;html=1;strokeWidth=1;align=left;verticalAlign=middle;spacingTop=-1;spacingLeft=3;spacingRight=3;rotatable=0;labelPosition=right;points=[];portConstraint=eastwest;" vertex="1" parent="K-yzalr9wQonv3SJ-tsn-7">
          <mxGeometry y="75" width="160" height="8" as="geometry" />
        </mxCell>
        <mxCell id="K-yzalr9wQonv3SJ-tsn-10" style="edgeStyle=orthogonalEdgeStyle;rounded=0;orthogonalLoop=1;jettySize=auto;html=1;entryX=0.5;entryY=0;entryDx=0;entryDy=0;endArrow=none;endFill=0;strokeColor=#000000;" edge="1" parent="K-yzalr9wQonv3SJ-tsn-1" source="K-yzalr9wQonv3SJ-tsn-11" target="K-yzalr9wQonv3SJ-tsn-7">
          <mxGeometry relative="1" as="geometry" />
        </mxCell>
        <mxCell id="K-yzalr9wQonv3SJ-tsn-11" value="Service" style="swimlane;fontStyle=0;align=center;verticalAlign=top;childLayout=stackLayout;horizontal=1;startSize=26;horizontalStack=0;resizeParent=1;resizeLast=0;collapsible=1;marginBottom=0;rounded=0;shadow=0;strokeWidth=1;" vertex="1" parent="K-yzalr9wQonv3SJ-tsn-1">
          <mxGeometry x="600" y="80" width="160" height="70" as="geometry">
            <mxRectangle x="340" y="380" width="170" height="26" as="alternateBounds" />
          </mxGeometry>
        </mxCell>
        <mxCell id="K-yzalr9wQonv3SJ-tsn-12" value="repository" style="text;align=left;verticalAlign=top;spacingLeft=4;spacingRight=4;overflow=hidden;rotatable=0;points=[[0,0.5],[1,0.5]];portConstraint=eastwest;" vertex="1" parent="K-yzalr9wQonv3SJ-tsn-11">
          <mxGeometry y="26" width="160" height="26" as="geometry" />
        </mxCell>
        <mxCell id="K-yzalr9wQonv3SJ-tsn-13" value="" style="line;html=1;strokeWidth=1;align=left;verticalAlign=middle;spacingTop=-1;spacingLeft=3;spacingRight=3;rotatable=0;labelPosition=right;points=[];portConstraint=eastwest;" vertex="1" parent="K-yzalr9wQonv3SJ-tsn-11">
          <mxGeometry y="52" width="160" height="8" as="geometry" />
        </mxCell>
        <mxCell id="K-yzalr9wQonv3SJ-tsn-14" value="Controller" style="swimlane;fontStyle=0;align=center;verticalAlign=top;childLayout=stackLayout;horizontal=1;startSize=26;horizontalStack=0;resizeParent=1;resizeLast=0;collapsible=1;marginBottom=0;rounded=0;shadow=0;strokeWidth=1;" vertex="1" parent="K-yzalr9wQonv3SJ-tsn-1">
          <mxGeometry x="320" y="80" width="160" height="120" as="geometry">
            <mxRectangle x="550" y="140" width="160" height="26" as="alternateBounds" />
          </mxGeometry>
        </mxCell>
        <mxCell id="K-yzalr9wQonv3SJ-tsn-15" value="logger" style="text;align=left;verticalAlign=top;spacingLeft=4;spacingRight=4;overflow=hidden;rotatable=0;points=[[0,0.5],[1,0.5]];portConstraint=eastwest;" vertex="1" parent="K-yzalr9wQonv3SJ-tsn-14">
          <mxGeometry y="26" width="160" height="26" as="geometry" />
        </mxCell>
        <mxCell id="K-yzalr9wQonv3SJ-tsn-16" value="service" style="text;align=left;verticalAlign=top;spacingLeft=4;spacingRight=4;overflow=hidden;rotatable=0;points=[[0,0.5],[1,0.5]];portConstraint=eastwest;rounded=0;shadow=0;html=0;" vertex="1" parent="K-yzalr9wQonv3SJ-tsn-14">
          <mxGeometry y="52" width="160" height="26" as="geometry" />
        </mxCell>
        <mxCell id="K-yzalr9wQonv3SJ-tsn-17" value="" style="line;html=1;strokeWidth=1;align=left;verticalAlign=middle;spacingTop=-1;spacingLeft=3;spacingRight=3;rotatable=0;labelPosition=right;points=[];portConstraint=eastwest;" vertex="1" parent="K-yzalr9wQonv3SJ-tsn-14">
          <mxGeometry y="78" width="160" height="8" as="geometry" />
        </mxCell>
        <mxCell id="K-yzalr9wQonv3SJ-tsn-18" value="delete (RequestDto)" style="text;align=left;verticalAlign=top;spacingLeft=4;spacingRight=4;overflow=hidden;rotatable=0;points=[[0,0.5],[1,0.5]];portConstraint=eastwest;" vertex="1" parent="K-yzalr9wQonv3SJ-tsn-14">
          <mxGeometry y="86" width="160" height="26" as="geometry" />
        </mxCell>
        <mxCell id="K-yzalr9wQonv3SJ-tsn-19" style="edgeStyle=orthogonalEdgeStyle;rounded=0;orthogonalLoop=1;jettySize=auto;html=1;entryX=0.5;entryY=1;entryDx=0;entryDy=0;" edge="1" parent="K-yzalr9wQonv3SJ-tsn-1" source="K-yzalr9wQonv3SJ-tsn-20" target="K-yzalr9wQonv3SJ-tsn-24">
          <mxGeometry relative="1" as="geometry" />
        </mxCell>
        <mxCell id="K-yzalr9wQonv3SJ-tsn-20" value="Document" style="swimlane;fontStyle=0;align=center;verticalAlign=top;childLayout=stackLayout;horizontal=1;startSize=26;horizontalStack=0;resizeParent=1;resizeLast=0;collapsible=1;marginBottom=0;rounded=0;shadow=0;strokeWidth=1;" vertex="1" parent="K-yzalr9wQonv3SJ-tsn-1">
          <mxGeometry x="320" y="370" width="160" height="70" as="geometry">
            <mxRectangle x="340" y="380" width="170" height="26" as="alternateBounds" />
          </mxGeometry>
        </mxCell>
        <mxCell id="K-yzalr9wQonv3SJ-tsn-21" value="form" style="text;align=left;verticalAlign=top;spacingLeft=4;spacingRight=4;overflow=hidden;rotatable=0;points=[[0,0.5],[1,0.5]];portConstraint=eastwest;" vertex="1" parent="K-yzalr9wQonv3SJ-tsn-20">
          <mxGeometry y="26" width="160" height="26" as="geometry" />
        </mxCell>
        <mxCell id="K-yzalr9wQonv3SJ-tsn-22" value="" style="line;html=1;strokeWidth=1;align=left;verticalAlign=middle;spacingTop=-1;spacingLeft=3;spacingRight=3;rotatable=0;labelPosition=right;points=[];portConstraint=eastwest;" vertex="1" parent="K-yzalr9wQonv3SJ-tsn-20">
          <mxGeometry y="52" width="160" height="8" as="geometry" />
        </mxCell>
        <mxCell id="K-yzalr9wQonv3SJ-tsn-23" style="edgeStyle=orthogonalEdgeStyle;rounded=0;orthogonalLoop=1;jettySize=auto;html=1;entryX=0.5;entryY=1;entryDx=0;entryDy=0;" edge="1" parent="K-yzalr9wQonv3SJ-tsn-1" source="K-yzalr9wQonv3SJ-tsn-24" target="K-yzalr9wQonv3SJ-tsn-14">
          <mxGeometry relative="1" as="geometry" />
        </mxCell>
        <mxCell id="K-yzalr9wQonv3SJ-tsn-24" value="ResponseDto" style="swimlane;fontStyle=0;align=center;verticalAlign=top;childLayout=stackLayout;horizontal=1;startSize=26;horizontalStack=0;resizeParent=1;resizeLast=0;collapsible=1;marginBottom=0;rounded=0;shadow=0;strokeWidth=1;" vertex="1" parent="K-yzalr9wQonv3SJ-tsn-1">
          <mxGeometry x="320" y="250" width="160" height="70" as="geometry">
            <mxRectangle x="340" y="380" width="170" height="26" as="alternateBounds" />
          </mxGeometry>
        </mxCell>
        <mxCell id="K-yzalr9wQonv3SJ-tsn-25" value="affectedRows" style="text;align=left;verticalAlign=top;spacingLeft=4;spacingRight=4;overflow=hidden;rotatable=0;points=[[0,0.5],[1,0.5]];portConstraint=eastwest;" vertex="1" parent="K-yzalr9wQonv3SJ-tsn-24">
          <mxGeometry y="26" width="160" height="26" as="geometry" />
        </mxCell>
        <mxCell id="K-yzalr9wQonv3SJ-tsn-26" value="" style="line;html=1;strokeWidth=1;align=left;verticalAlign=middle;spacingTop=-1;spacingLeft=3;spacingRight=3;rotatable=0;labelPosition=right;points=[];portConstraint=eastwest;" vertex="1" parent="K-yzalr9wQonv3SJ-tsn-24">
          <mxGeometry y="52" width="160" height="8" as="geometry" />
        </mxCell>
        <mxCell id="K-yzalr9wQonv3SJ-tsn-27" value="" style="endArrow=none;html=1;exitX=1.013;exitY=0.846;exitDx=0;exitDy=0;entryX=-0.006;entryY=-0.154;entryDx=0;entryDy=0;exitPerimeter=0;entryPerimeter=0;" edge="1" parent="K-yzalr9wQonv3SJ-tsn-1" source="K-yzalr9wQonv3SJ-tsn-3" target="K-yzalr9wQonv3SJ-tsn-16">
          <mxGeometry width="50" height="50" relative="1" as="geometry">
            <mxPoint x="220" y="230" as="sourcePoint" />
            <mxPoint x="300" y="159" as="targetPoint" />
          </mxGeometry>
        </mxCell>
        <mxCell id="K-yzalr9wQonv3SJ-tsn-28" style="edgeStyle=orthogonalEdgeStyle;rounded=0;orthogonalLoop=1;jettySize=auto;html=1;entryX=1;entryY=0.5;entryDx=0;entryDy=0;endArrow=classic;endFill=1;strokeColor=#000000;" edge="1" parent="K-yzalr9wQonv3SJ-tsn-1" target="K-yzalr9wQonv3SJ-tsn-20">
          <mxGeometry relative="1" as="geometry">
            <mxPoint x="600" y="408" as="sourcePoint" />
            <Array as="points">
              <mxPoint x="600" y="405" />
            </Array>
          </mxGeometry>
        </mxCell>
        <mxCell id="K-yzalr9wQonv3SJ-tsn-29" style="edgeStyle=orthogonalEdgeStyle;rounded=0;orthogonalLoop=1;jettySize=auto;html=1;entryX=0;entryY=0.5;entryDx=0;entryDy=0;endArrow=none;endFill=0;" edge="1" parent="K-yzalr9wQonv3SJ-tsn-1" target="K-yzalr9wQonv3SJ-tsn-12">
          <mxGeometry relative="1" as="geometry">
            <Array as="points">
              <mxPoint x="480" y="119" />
            </Array>
            <mxPoint x="480" y="184" as="sourcePoint" />
          </mxGeometry>
        </mxCell>
      </root>
    </mxGraphModel>
  </diagram>
  <diagram name="search form" id="KW9BBmcDvqZf-3x353cv">
    <mxGraphModel dx="1121" dy="608" grid="0" gridSize="1" guides="1" tooltips="1" connect="1" arrows="1" fold="1" page="1" pageScale="1" pageWidth="827" pageHeight="1169" background="none" math="0" shadow="0">
      <root>
        <mxCell id="LvI9nu_68Tslc3btimmx-0" />
        <mxCell id="LvI9nu_68Tslc3btimmx-1" parent="LvI9nu_68Tslc3btimmx-0" />
        <mxCell id="LvI9nu_68Tslc3btimmx-2" value="RequestDto" style="swimlane;fontStyle=2;align=center;verticalAlign=top;childLayout=stackLayout;horizontal=1;startSize=26;horizontalStack=0;resizeParent=1;resizeLast=0;collapsible=1;marginBottom=0;rounded=0;shadow=0;strokeWidth=1;" vertex="1" parent="LvI9nu_68Tslc3btimmx-1">
          <mxGeometry x="40" y="80" width="160" height="137" as="geometry">
            <mxRectangle x="230" y="140" width="160" height="26" as="alternateBounds" />
          </mxGeometry>
        </mxCell>
        <mxCell id="LvI9nu_68Tslc3btimmx-3" value="keyword" style="text;align=left;verticalAlign=top;spacingLeft=4;spacingRight=4;overflow=hidden;rotatable=0;points=[[0,0.5],[1,0.5]];portConstraint=eastwest;" vertex="1" parent="LvI9nu_68Tslc3btimmx-2">
          <mxGeometry y="26" width="160" height="26" as="geometry" />
        </mxCell>
        <mxCell id="LvI9nu_68Tslc3btimmx-4" value="page" style="text;align=left;verticalAlign=top;spacingLeft=4;spacingRight=4;overflow=hidden;rotatable=0;points=[[0,0.5],[1,0.5]];portConstraint=eastwest;rounded=0;shadow=0;html=0;" vertex="1" parent="LvI9nu_68Tslc3btimmx-2">
          <mxGeometry y="52" width="160" height="26" as="geometry" />
        </mxCell>
        <mxCell id="LvI9nu_68Tslc3btimmx-5" value="size" style="text;align=left;verticalAlign=top;spacingLeft=4;spacingRight=4;overflow=hidden;rotatable=0;points=[[0,0.5],[1,0.5]];portConstraint=eastwest;rounded=0;shadow=0;html=0;" vertex="1" parent="LvI9nu_68Tslc3btimmx-2">
          <mxGeometry y="78" width="160" height="26" as="geometry" />
        </mxCell>
        <mxCell id="LvI9nu_68Tslc3btimmx-29" value="spec" style="text;align=left;verticalAlign=top;spacingLeft=4;spacingRight=4;overflow=hidden;rotatable=0;points=[[0,0.5],[1,0.5]];portConstraint=eastwest;rounded=0;shadow=0;html=0;" vertex="1" parent="LvI9nu_68Tslc3btimmx-2">
          <mxGeometry y="104" width="160" height="26" as="geometry" />
        </mxCell>
        <mxCell id="oU1hXV3LYNFZy6uTrWQa-5" style="edgeStyle=orthogonalEdgeStyle;rounded=0;orthogonalLoop=1;jettySize=auto;html=1;entryX=0.5;entryY=0;entryDx=0;entryDy=0;" edge="1" parent="LvI9nu_68Tslc3btimmx-1" source="LvI9nu_68Tslc3btimmx-6" target="LvI9nu_68Tslc3btimmx-19">
          <mxGeometry relative="1" as="geometry" />
        </mxCell>
        <mxCell id="LvI9nu_68Tslc3btimmx-6" value="&lt;&lt;interface&gt;&gt;&#xa;Repository" style="swimlane;fontStyle=0;align=center;verticalAlign=top;childLayout=stackLayout;horizontal=1;startSize=41;horizontalStack=0;resizeParent=1;resizeLast=0;collapsible=1;marginBottom=0;rounded=0;shadow=0;strokeWidth=1;" vertex="1" parent="LvI9nu_68Tslc3btimmx-1">
          <mxGeometry x="600" y="226" width="160" height="90" as="geometry">
            <mxRectangle x="590" y="380" width="160" height="26" as="alternateBounds" />
          </mxGeometry>
        </mxCell>
        <mxCell id="LvI9nu_68Tslc3btimmx-7" value="search (Document)" style="text;align=left;verticalAlign=top;spacingLeft=4;spacingRight=4;overflow=hidden;rotatable=0;points=[[0,0.5],[1,0.5]];portConstraint=eastwest;" vertex="1" parent="LvI9nu_68Tslc3btimmx-6">
          <mxGeometry y="41" width="160" height="34" as="geometry" />
        </mxCell>
        <mxCell id="LvI9nu_68Tslc3btimmx-8" value="" style="line;html=1;strokeWidth=1;align=left;verticalAlign=middle;spacingTop=-1;spacingLeft=3;spacingRight=3;rotatable=0;labelPosition=right;points=[];portConstraint=eastwest;" vertex="1" parent="LvI9nu_68Tslc3btimmx-6">
          <mxGeometry y="75" width="160" height="8" as="geometry" />
        </mxCell>
        <mxCell id="LvI9nu_68Tslc3btimmx-9" style="edgeStyle=orthogonalEdgeStyle;rounded=0;orthogonalLoop=1;jettySize=auto;html=1;entryX=0.5;entryY=0;entryDx=0;entryDy=0;endArrow=none;endFill=0;strokeColor=#000000;" edge="1" parent="LvI9nu_68Tslc3btimmx-1" source="LvI9nu_68Tslc3btimmx-10" target="LvI9nu_68Tslc3btimmx-6">
          <mxGeometry relative="1" as="geometry" />
        </mxCell>
        <mxCell id="LvI9nu_68Tslc3btimmx-10" value="Service" style="swimlane;fontStyle=0;align=center;verticalAlign=top;childLayout=stackLayout;horizontal=1;startSize=26;horizontalStack=0;resizeParent=1;resizeLast=0;collapsible=1;marginBottom=0;rounded=0;shadow=0;strokeWidth=1;" vertex="1" parent="LvI9nu_68Tslc3btimmx-1">
          <mxGeometry x="600" y="80" width="160" height="70" as="geometry">
            <mxRectangle x="340" y="380" width="170" height="26" as="alternateBounds" />
          </mxGeometry>
        </mxCell>
        <mxCell id="LvI9nu_68Tslc3btimmx-11" value="repository" style="text;align=left;verticalAlign=top;spacingLeft=4;spacingRight=4;overflow=hidden;rotatable=0;points=[[0,0.5],[1,0.5]];portConstraint=eastwest;" vertex="1" parent="LvI9nu_68Tslc3btimmx-10">
          <mxGeometry y="26" width="160" height="26" as="geometry" />
        </mxCell>
        <mxCell id="LvI9nu_68Tslc3btimmx-12" value="" style="line;html=1;strokeWidth=1;align=left;verticalAlign=middle;spacingTop=-1;spacingLeft=3;spacingRight=3;rotatable=0;labelPosition=right;points=[];portConstraint=eastwest;" vertex="1" parent="LvI9nu_68Tslc3btimmx-10">
          <mxGeometry y="52" width="160" height="8" as="geometry" />
        </mxCell>
        <mxCell id="LvI9nu_68Tslc3btimmx-13" value="Controller" style="swimlane;fontStyle=0;align=center;verticalAlign=top;childLayout=stackLayout;horizontal=1;startSize=26;horizontalStack=0;resizeParent=1;resizeLast=0;collapsible=1;marginBottom=0;rounded=0;shadow=0;strokeWidth=1;" vertex="1" parent="LvI9nu_68Tslc3btimmx-1">
          <mxGeometry x="320" y="80" width="160" height="120" as="geometry">
            <mxRectangle x="550" y="140" width="160" height="26" as="alternateBounds" />
          </mxGeometry>
        </mxCell>
        <mxCell id="LvI9nu_68Tslc3btimmx-14" value="logger" style="text;align=left;verticalAlign=top;spacingLeft=4;spacingRight=4;overflow=hidden;rotatable=0;points=[[0,0.5],[1,0.5]];portConstraint=eastwest;" vertex="1" parent="LvI9nu_68Tslc3btimmx-13">
          <mxGeometry y="26" width="160" height="26" as="geometry" />
        </mxCell>
        <mxCell id="LvI9nu_68Tslc3btimmx-15" value="service" style="text;align=left;verticalAlign=top;spacingLeft=4;spacingRight=4;overflow=hidden;rotatable=0;points=[[0,0.5],[1,0.5]];portConstraint=eastwest;rounded=0;shadow=0;html=0;" vertex="1" parent="LvI9nu_68Tslc3btimmx-13">
          <mxGeometry y="52" width="160" height="26" as="geometry" />
        </mxCell>
        <mxCell id="LvI9nu_68Tslc3btimmx-16" value="" style="line;html=1;strokeWidth=1;align=left;verticalAlign=middle;spacingTop=-1;spacingLeft=3;spacingRight=3;rotatable=0;labelPosition=right;points=[];portConstraint=eastwest;" vertex="1" parent="LvI9nu_68Tslc3btimmx-13">
          <mxGeometry y="78" width="160" height="8" as="geometry" />
        </mxCell>
        <mxCell id="LvI9nu_68Tslc3btimmx-17" value="search (RequestDto)" style="text;align=left;verticalAlign=top;spacingLeft=4;spacingRight=4;overflow=hidden;rotatable=0;points=[[0,0.5],[1,0.5]];portConstraint=eastwest;" vertex="1" parent="LvI9nu_68Tslc3btimmx-13">
          <mxGeometry y="86" width="160" height="26" as="geometry" />
        </mxCell>
        <mxCell id="LvI9nu_68Tslc3btimmx-19" value="Document" style="swimlane;fontStyle=0;align=center;verticalAlign=top;childLayout=stackLayout;horizontal=1;startSize=26;horizontalStack=0;resizeParent=1;resizeLast=0;collapsible=1;marginBottom=0;rounded=0;shadow=0;strokeWidth=1;" vertex="1" parent="LvI9nu_68Tslc3btimmx-1">
          <mxGeometry x="600" y="380" width="160" height="70" as="geometry">
            <mxRectangle x="340" y="380" width="170" height="26" as="alternateBounds" />
          </mxGeometry>
        </mxCell>
        <mxCell id="LvI9nu_68Tslc3btimmx-20" value="form" style="text;align=left;verticalAlign=top;spacingLeft=4;spacingRight=4;overflow=hidden;rotatable=0;points=[[0,0.5],[1,0.5]];portConstraint=eastwest;" vertex="1" parent="LvI9nu_68Tslc3btimmx-19">
          <mxGeometry y="26" width="160" height="26" as="geometry" />
        </mxCell>
        <mxCell id="LvI9nu_68Tslc3btimmx-21" value="" style="line;html=1;strokeWidth=1;align=left;verticalAlign=middle;spacingTop=-1;spacingLeft=3;spacingRight=3;rotatable=0;labelPosition=right;points=[];portConstraint=eastwest;" vertex="1" parent="LvI9nu_68Tslc3btimmx-19">
          <mxGeometry y="52" width="160" height="8" as="geometry" />
        </mxCell>
        <mxCell id="LvI9nu_68Tslc3btimmx-26" value="" style="endArrow=none;html=1;exitX=1.006;exitY=-0.154;exitDx=0;exitDy=0;entryX=-0.006;entryY=-0.154;entryDx=0;entryDy=0;exitPerimeter=0;entryPerimeter=0;" edge="1" parent="LvI9nu_68Tslc3btimmx-1" source="LvI9nu_68Tslc3btimmx-4" target="LvI9nu_68Tslc3btimmx-15">
          <mxGeometry width="50" height="50" relative="1" as="geometry">
            <mxPoint x="220" y="230" as="sourcePoint" />
            <mxPoint x="300" y="159" as="targetPoint" />
          </mxGeometry>
        </mxCell>
        <mxCell id="LvI9nu_68Tslc3btimmx-28" style="edgeStyle=orthogonalEdgeStyle;rounded=0;orthogonalLoop=1;jettySize=auto;html=1;entryX=0;entryY=0.5;entryDx=0;entryDy=0;endArrow=none;endFill=0;" edge="1" parent="LvI9nu_68Tslc3btimmx-1" target="LvI9nu_68Tslc3btimmx-11">
          <mxGeometry relative="1" as="geometry">
            <Array as="points">
              <mxPoint x="480" y="119" />
            </Array>
            <mxPoint x="480" y="184" as="sourcePoint" />
          </mxGeometry>
        </mxCell>
        <mxCell id="oU1hXV3LYNFZy6uTrWQa-7" style="edgeStyle=orthogonalEdgeStyle;rounded=0;orthogonalLoop=1;jettySize=auto;html=1;entryX=0.5;entryY=1;entryDx=0;entryDy=0;endArrow=classic;endFill=1;" edge="1" parent="LvI9nu_68Tslc3btimmx-1" source="oU1hXV3LYNFZy6uTrWQa-0" target="LvI9nu_68Tslc3btimmx-13">
          <mxGeometry relative="1" as="geometry" />
        </mxCell>
        <mxCell id="oU1hXV3LYNFZy6uTrWQa-0" value="ResponseDto" style="swimlane;fontStyle=2;align=center;verticalAlign=top;childLayout=stackLayout;horizontal=1;startSize=26;horizontalStack=0;resizeParent=1;resizeLast=0;collapsible=1;marginBottom=0;rounded=0;shadow=0;strokeWidth=1;" vertex="1" parent="LvI9nu_68Tslc3btimmx-1">
          <mxGeometry x="320" y="309" width="160" height="141" as="geometry">
            <mxRectangle x="230" y="140" width="160" height="26" as="alternateBounds" />
          </mxGeometry>
        </mxCell>
        <mxCell id="oU1hXV3LYNFZy6uTrWQa-1" value="id" style="text;align=left;verticalAlign=top;spacingLeft=4;spacingRight=4;overflow=hidden;rotatable=0;points=[[0,0.5],[1,0.5]];portConstraint=eastwest;rounded=0;shadow=0;html=0;" vertex="1" parent="oU1hXV3LYNFZy6uTrWQa-0">
          <mxGeometry y="26" width="160" height="26" as="geometry" />
        </mxCell>
        <mxCell id="oU1hXV3LYNFZy6uTrWQa-2" value="code" style="text;align=left;verticalAlign=top;spacingLeft=4;spacingRight=4;overflow=hidden;rotatable=0;points=[[0,0.5],[1,0.5]];portConstraint=eastwest;" vertex="1" parent="oU1hXV3LYNFZy6uTrWQa-0">
          <mxGeometry y="52" width="160" height="26" as="geometry" />
        </mxCell>
        <mxCell id="oU1hXV3LYNFZy6uTrWQa-3" value="name" style="text;align=left;verticalAlign=top;spacingLeft=4;spacingRight=4;overflow=hidden;rotatable=0;points=[[0,0.5],[1,0.5]];portConstraint=eastwest;rounded=0;shadow=0;html=0;" vertex="1" parent="oU1hXV3LYNFZy6uTrWQa-0">
          <mxGeometry y="78" width="160" height="26" as="geometry" />
        </mxCell>
        <mxCell id="oU1hXV3LYNFZy6uTrWQa-4" value="status" style="text;align=left;verticalAlign=top;spacingLeft=4;spacingRight=4;overflow=hidden;rotatable=0;points=[[0,0.5],[1,0.5]];portConstraint=eastwest;rounded=0;shadow=0;html=0;" vertex="1" parent="oU1hXV3LYNFZy6uTrWQa-0">
          <mxGeometry y="104" width="160" height="26" as="geometry" />
        </mxCell>
        <mxCell id="oU1hXV3LYNFZy6uTrWQa-6" style="edgeStyle=orthogonalEdgeStyle;rounded=0;orthogonalLoop=1;jettySize=auto;html=1;entryX=1.019;entryY=0.231;entryDx=0;entryDy=0;entryPerimeter=0;" edge="1" parent="LvI9nu_68Tslc3btimmx-1" source="LvI9nu_68Tslc3btimmx-20" target="oU1hXV3LYNFZy6uTrWQa-4">
          <mxGeometry relative="1" as="geometry" />
        </mxCell>
      </root>
    </mxGraphModel>
  </diagram>
  <diagram name="Add procedure" id="Pu0_D3XLnhMiVuCNVzMB">
    <mxGraphModel dx="1121" dy="608" grid="0" gridSize="1" guides="1" tooltips="1" connect="1" arrows="1" fold="1" page="1" pageScale="1" pageWidth="827" pageHeight="1169" background="none" math="0" shadow="0">
      <root>
        <mxCell id="GKgSuVe2OaxYyKZAA1Ft-0" />
        <mxCell id="GKgSuVe2OaxYyKZAA1Ft-1" parent="GKgSuVe2OaxYyKZAA1Ft-0" />
        <mxCell id="GKgSuVe2OaxYyKZAA1Ft-2" value="RequestDto" style="swimlane;fontStyle=2;align=center;verticalAlign=top;childLayout=stackLayout;horizontal=1;startSize=26;horizontalStack=0;resizeParent=1;resizeLast=0;collapsible=1;marginBottom=0;rounded=0;shadow=0;strokeWidth=1;" vertex="1" parent="GKgSuVe2OaxYyKZAA1Ft-1">
          <mxGeometry x="40" y="80" width="160" height="494" as="geometry">
            <mxRectangle x="230" y="140" width="160" height="26" as="alternateBounds" />
          </mxGeometry>
        </mxCell>
        <mxCell id="GKgSuVe2OaxYyKZAA1Ft-3" value="keyword" style="text;align=left;verticalAlign=top;spacingLeft=4;spacingRight=4;overflow=hidden;rotatable=0;points=[[0,0.5],[1,0.5]];portConstraint=eastwest;" vertex="1" parent="GKgSuVe2OaxYyKZAA1Ft-2">
          <mxGeometry y="26" width="160" height="26" as="geometry" />
        </mxCell>
        <mxCell id="GKgSuVe2OaxYyKZAA1Ft-4" value="code" style="text;align=left;verticalAlign=top;spacingLeft=4;spacingRight=4;overflow=hidden;rotatable=0;points=[[0,0.5],[1,0.5]];portConstraint=eastwest;rounded=0;shadow=0;html=0;" vertex="1" parent="GKgSuVe2OaxYyKZAA1Ft-2">
          <mxGeometry y="52" width="160" height="26" as="geometry" />
        </mxCell>
        <mxCell id="GKgSuVe2OaxYyKZAA1Ft-5" value="level" style="text;align=left;verticalAlign=top;spacingLeft=4;spacingRight=4;overflow=hidden;rotatable=0;points=[[0,0.5],[1,0.5]];portConstraint=eastwest;rounded=0;shadow=0;html=0;" vertex="1" parent="GKgSuVe2OaxYyKZAA1Ft-2">
          <mxGeometry y="78" width="160" height="26" as="geometry" />
        </mxCell>
        <mxCell id="GKgSuVe2OaxYyKZAA1Ft-6" value="agencyLevel" style="text;align=left;verticalAlign=top;spacingLeft=4;spacingRight=4;overflow=hidden;rotatable=0;points=[[0,0.5],[1,0.5]];portConstraint=eastwest;rounded=0;shadow=0;html=0;" vertex="1" parent="GKgSuVe2OaxYyKZAA1Ft-2">
          <mxGeometry y="104" width="160" height="26" as="geometry" />
        </mxCell>
        <mxCell id="GKgSuVe2OaxYyKZAA1Ft-32" value="sector" style="text;align=left;verticalAlign=top;spacingLeft=4;spacingRight=4;overflow=hidden;rotatable=0;points=[[0,0.5],[1,0.5]];portConstraint=eastwest;rounded=0;shadow=0;html=0;" vertex="1" parent="GKgSuVe2OaxYyKZAA1Ft-2">
          <mxGeometry y="130" width="160" height="26" as="geometry" />
        </mxCell>
        <mxCell id="GKgSuVe2OaxYyKZAA1Ft-33" value="dossierQuantity" style="text;align=left;verticalAlign=top;spacingLeft=4;spacingRight=4;overflow=hidden;rotatable=0;points=[[0,0.5],[1,0.5]];portConstraint=eastwest;rounded=0;shadow=0;html=0;" vertex="1" parent="GKgSuVe2OaxYyKZAA1Ft-2">
          <mxGeometry y="156" width="160" height="26" as="geometry" />
        </mxCell>
        <mxCell id="GKgSuVe2OaxYyKZAA1Ft-34" value="paymentMethod" style="text;align=left;verticalAlign=top;spacingLeft=4;spacingRight=4;overflow=hidden;rotatable=0;points=[[0,0.5],[1,0.5]];portConstraint=eastwest;rounded=0;shadow=0;html=0;" vertex="1" parent="GKgSuVe2OaxYyKZAA1Ft-2">
          <mxGeometry y="182" width="160" height="26" as="geometry" />
        </mxCell>
        <mxCell id="GKgSuVe2OaxYyKZAA1Ft-35" value="translate" style="text;align=left;verticalAlign=top;spacingLeft=4;spacingRight=4;overflow=hidden;rotatable=0;points=[[0,0.5],[1,0.5]];portConstraint=eastwest;rounded=0;shadow=0;html=0;" vertex="1" parent="GKgSuVe2OaxYyKZAA1Ft-2">
          <mxGeometry y="208" width="160" height="26" as="geometry" />
        </mxCell>
        <mxCell id="GKgSuVe2OaxYyKZAA1Ft-36" value="agency" style="text;align=left;verticalAlign=top;spacingLeft=4;spacingRight=4;overflow=hidden;rotatable=0;points=[[0,0.5],[1,0.5]];portConstraint=eastwest;rounded=0;shadow=0;html=0;" vertex="1" parent="GKgSuVe2OaxYyKZAA1Ft-2">
          <mxGeometry y="234" width="160" height="26" as="geometry" />
        </mxCell>
        <mxCell id="GKgSuVe2OaxYyKZAA1Ft-37" value="startDate" style="text;align=left;verticalAlign=top;spacingLeft=4;spacingRight=4;overflow=hidden;rotatable=0;points=[[0,0.5],[1,0.5]];portConstraint=eastwest;rounded=0;shadow=0;html=0;" vertex="1" parent="GKgSuVe2OaxYyKZAA1Ft-2">
          <mxGeometry y="260" width="160" height="26" as="geometry" />
        </mxCell>
        <mxCell id="GKgSuVe2OaxYyKZAA1Ft-38" value="endDate" style="text;align=left;verticalAlign=top;spacingLeft=4;spacingRight=4;overflow=hidden;rotatable=0;points=[[0,0.5],[1,0.5]];portConstraint=eastwest;rounded=0;shadow=0;html=0;" vertex="1" parent="GKgSuVe2OaxYyKZAA1Ft-2">
          <mxGeometry y="286" width="160" height="26" as="geometry" />
        </mxCell>
        <mxCell id="GKgSuVe2OaxYyKZAA1Ft-39" value="status" style="text;align=left;verticalAlign=top;spacingLeft=4;spacingRight=4;overflow=hidden;rotatable=0;points=[[0,0.5],[1,0.5]];portConstraint=eastwest;rounded=0;shadow=0;html=0;" vertex="1" parent="GKgSuVe2OaxYyKZAA1Ft-2">
          <mxGeometry y="312" width="160" height="26" as="geometry" />
        </mxCell>
        <mxCell id="GKgSuVe2OaxYyKZAA1Ft-40" value="applyMethod" style="text;align=left;verticalAlign=top;spacingLeft=4;spacingRight=4;overflow=hidden;rotatable=0;points=[[0,0.5],[1,0.5]];portConstraint=eastwest;rounded=0;shadow=0;html=0;" vertex="1" parent="GKgSuVe2OaxYyKZAA1Ft-2">
          <mxGeometry y="338" width="160" height="26" as="geometry" />
        </mxCell>
        <mxCell id="GKgSuVe2OaxYyKZAA1Ft-41" value="case" style="text;align=left;verticalAlign=top;spacingLeft=4;spacingRight=4;overflow=hidden;rotatable=0;points=[[0,0.5],[1,0.5]];portConstraint=eastwest;rounded=0;shadow=0;html=0;" vertex="1" parent="GKgSuVe2OaxYyKZAA1Ft-2">
          <mxGeometry y="364" width="160" height="26" as="geometry" />
        </mxCell>
        <mxCell id="GKgSuVe2OaxYyKZAA1Ft-42" value="implementer" style="text;align=left;verticalAlign=top;spacingLeft=4;spacingRight=4;overflow=hidden;rotatable=0;points=[[0,0.5],[1,0.5]];portConstraint=eastwest;rounded=0;shadow=0;html=0;" vertex="1" parent="GKgSuVe2OaxYyKZAA1Ft-2">
          <mxGeometry y="390" width="160" height="26" as="geometry" />
        </mxCell>
        <mxCell id="GKgSuVe2OaxYyKZAA1Ft-43" value="children" style="text;align=left;verticalAlign=top;spacingLeft=4;spacingRight=4;overflow=hidden;rotatable=0;points=[[0,0.5],[1,0.5]];portConstraint=eastwest;rounded=0;shadow=0;html=0;" vertex="1" parent="GKgSuVe2OaxYyKZAA1Ft-2">
          <mxGeometry y="416" width="160" height="26" as="geometry" />
        </mxCell>
        <mxCell id="GKgSuVe2OaxYyKZAA1Ft-44" value="agencyIssued" style="text;align=left;verticalAlign=top;spacingLeft=4;spacingRight=4;overflow=hidden;rotatable=0;points=[[0,0.5],[1,0.5]];portConstraint=eastwest;rounded=0;shadow=0;html=0;" vertex="1" parent="GKgSuVe2OaxYyKZAA1Ft-2">
          <mxGeometry y="442" width="160" height="26" as="geometry" />
        </mxCell>
        <mxCell id="hOAoJ5xywu6q5goRAdje-1" value="" style="line;html=1;strokeWidth=1;align=left;verticalAlign=middle;spacingTop=-1;spacingLeft=3;spacingRight=3;rotatable=0;labelPosition=right;points=[];portConstraint=eastwest;" vertex="1" parent="GKgSuVe2OaxYyKZAA1Ft-2">
          <mxGeometry y="468" width="160" height="8" as="geometry" />
        </mxCell>
        <mxCell id="GKgSuVe2OaxYyKZAA1Ft-7" style="edgeStyle=orthogonalEdgeStyle;rounded=0;orthogonalLoop=1;jettySize=auto;html=1;entryX=0.5;entryY=0;entryDx=0;entryDy=0;" edge="1" parent="GKgSuVe2OaxYyKZAA1Ft-1" source="GKgSuVe2OaxYyKZAA1Ft-8" target="GKgSuVe2OaxYyKZAA1Ft-20">
          <mxGeometry relative="1" as="geometry" />
        </mxCell>
        <mxCell id="GKgSuVe2OaxYyKZAA1Ft-8" value="&lt;&lt;interface&gt;&gt;&#xa;Repository" style="swimlane;fontStyle=0;align=center;verticalAlign=top;childLayout=stackLayout;horizontal=1;startSize=41;horizontalStack=0;resizeParent=1;resizeLast=0;collapsible=1;marginBottom=0;rounded=0;shadow=0;strokeWidth=1;" vertex="1" parent="GKgSuVe2OaxYyKZAA1Ft-1">
          <mxGeometry x="600" y="226" width="160" height="90" as="geometry">
            <mxRectangle x="590" y="380" width="160" height="26" as="alternateBounds" />
          </mxGeometry>
        </mxCell>
        <mxCell id="GKgSuVe2OaxYyKZAA1Ft-9" value="add (Document)" style="text;align=left;verticalAlign=top;spacingLeft=4;spacingRight=4;overflow=hidden;rotatable=0;points=[[0,0.5],[1,0.5]];portConstraint=eastwest;" vertex="1" parent="GKgSuVe2OaxYyKZAA1Ft-8">
          <mxGeometry y="41" width="160" height="34" as="geometry" />
        </mxCell>
        <mxCell id="GKgSuVe2OaxYyKZAA1Ft-10" value="" style="line;html=1;strokeWidth=1;align=left;verticalAlign=middle;spacingTop=-1;spacingLeft=3;spacingRight=3;rotatable=0;labelPosition=right;points=[];portConstraint=eastwest;" vertex="1" parent="GKgSuVe2OaxYyKZAA1Ft-8">
          <mxGeometry y="75" width="160" height="8" as="geometry" />
        </mxCell>
        <mxCell id="GKgSuVe2OaxYyKZAA1Ft-11" style="edgeStyle=orthogonalEdgeStyle;rounded=0;orthogonalLoop=1;jettySize=auto;html=1;entryX=0.5;entryY=0;entryDx=0;entryDy=0;endArrow=none;endFill=0;strokeColor=#000000;" edge="1" parent="GKgSuVe2OaxYyKZAA1Ft-1" source="GKgSuVe2OaxYyKZAA1Ft-12" target="GKgSuVe2OaxYyKZAA1Ft-8">
          <mxGeometry relative="1" as="geometry" />
        </mxCell>
        <mxCell id="GKgSuVe2OaxYyKZAA1Ft-12" value="Service" style="swimlane;fontStyle=0;align=center;verticalAlign=top;childLayout=stackLayout;horizontal=1;startSize=26;horizontalStack=0;resizeParent=1;resizeLast=0;collapsible=1;marginBottom=0;rounded=0;shadow=0;strokeWidth=1;" vertex="1" parent="GKgSuVe2OaxYyKZAA1Ft-1">
          <mxGeometry x="600" y="80" width="160" height="70" as="geometry">
            <mxRectangle x="340" y="380" width="170" height="26" as="alternateBounds" />
          </mxGeometry>
        </mxCell>
        <mxCell id="GKgSuVe2OaxYyKZAA1Ft-13" value="repository" style="text;align=left;verticalAlign=top;spacingLeft=4;spacingRight=4;overflow=hidden;rotatable=0;points=[[0,0.5],[1,0.5]];portConstraint=eastwest;" vertex="1" parent="GKgSuVe2OaxYyKZAA1Ft-12">
          <mxGeometry y="26" width="160" height="26" as="geometry" />
        </mxCell>
        <mxCell id="GKgSuVe2OaxYyKZAA1Ft-14" value="" style="line;html=1;strokeWidth=1;align=left;verticalAlign=middle;spacingTop=-1;spacingLeft=3;spacingRight=3;rotatable=0;labelPosition=right;points=[];portConstraint=eastwest;" vertex="1" parent="GKgSuVe2OaxYyKZAA1Ft-12">
          <mxGeometry y="52" width="160" height="8" as="geometry" />
        </mxCell>
        <mxCell id="GKgSuVe2OaxYyKZAA1Ft-15" value="Controller" style="swimlane;fontStyle=0;align=center;verticalAlign=top;childLayout=stackLayout;horizontal=1;startSize=26;horizontalStack=0;resizeParent=1;resizeLast=0;collapsible=1;marginBottom=0;rounded=0;shadow=0;strokeWidth=1;" vertex="1" parent="GKgSuVe2OaxYyKZAA1Ft-1">
          <mxGeometry x="320" y="80" width="160" height="120" as="geometry">
            <mxRectangle x="550" y="140" width="160" height="26" as="alternateBounds" />
          </mxGeometry>
        </mxCell>
        <mxCell id="GKgSuVe2OaxYyKZAA1Ft-16" value="logger" style="text;align=left;verticalAlign=top;spacingLeft=4;spacingRight=4;overflow=hidden;rotatable=0;points=[[0,0.5],[1,0.5]];portConstraint=eastwest;" vertex="1" parent="GKgSuVe2OaxYyKZAA1Ft-15">
          <mxGeometry y="26" width="160" height="26" as="geometry" />
        </mxCell>
        <mxCell id="GKgSuVe2OaxYyKZAA1Ft-17" value="service" style="text;align=left;verticalAlign=top;spacingLeft=4;spacingRight=4;overflow=hidden;rotatable=0;points=[[0,0.5],[1,0.5]];portConstraint=eastwest;rounded=0;shadow=0;html=0;" vertex="1" parent="GKgSuVe2OaxYyKZAA1Ft-15">
          <mxGeometry y="52" width="160" height="26" as="geometry" />
        </mxCell>
        <mxCell id="GKgSuVe2OaxYyKZAA1Ft-18" value="" style="line;html=1;strokeWidth=1;align=left;verticalAlign=middle;spacingTop=-1;spacingLeft=3;spacingRight=3;rotatable=0;labelPosition=right;points=[];portConstraint=eastwest;" vertex="1" parent="GKgSuVe2OaxYyKZAA1Ft-15">
          <mxGeometry y="78" width="160" height="8" as="geometry" />
        </mxCell>
        <mxCell id="GKgSuVe2OaxYyKZAA1Ft-19" value="add (RequestDto)" style="text;align=left;verticalAlign=top;spacingLeft=4;spacingRight=4;overflow=hidden;rotatable=0;points=[[0,0.5],[1,0.5]];portConstraint=eastwest;" vertex="1" parent="GKgSuVe2OaxYyKZAA1Ft-15">
          <mxGeometry y="86" width="160" height="26" as="geometry" />
        </mxCell>
        <mxCell id="GKgSuVe2OaxYyKZAA1Ft-20" value="Document" style="swimlane;fontStyle=0;align=center;verticalAlign=top;childLayout=stackLayout;horizontal=1;startSize=26;horizontalStack=0;resizeParent=1;resizeLast=0;collapsible=1;marginBottom=0;rounded=0;shadow=0;strokeWidth=1;" vertex="1" parent="GKgSuVe2OaxYyKZAA1Ft-1">
          <mxGeometry x="600" y="380" width="160" height="70" as="geometry">
            <mxRectangle x="340" y="380" width="170" height="26" as="alternateBounds" />
          </mxGeometry>
        </mxCell>
        <mxCell id="GKgSuVe2OaxYyKZAA1Ft-21" value="procedure" style="text;align=left;verticalAlign=top;spacingLeft=4;spacingRight=4;overflow=hidden;rotatable=0;points=[[0,0.5],[1,0.5]];portConstraint=eastwest;" vertex="1" parent="GKgSuVe2OaxYyKZAA1Ft-20">
          <mxGeometry y="26" width="160" height="26" as="geometry" />
        </mxCell>
        <mxCell id="GKgSuVe2OaxYyKZAA1Ft-22" value="" style="line;html=1;strokeWidth=1;align=left;verticalAlign=middle;spacingTop=-1;spacingLeft=3;spacingRight=3;rotatable=0;labelPosition=right;points=[];portConstraint=eastwest;" vertex="1" parent="GKgSuVe2OaxYyKZAA1Ft-20">
          <mxGeometry y="52" width="160" height="8" as="geometry" />
        </mxCell>
        <mxCell id="GKgSuVe2OaxYyKZAA1Ft-23" value="" style="endArrow=none;html=1;exitX=1.006;exitY=-0.154;exitDx=0;exitDy=0;entryX=-0.006;entryY=-0.154;entryDx=0;entryDy=0;exitPerimeter=0;entryPerimeter=0;" edge="1" parent="GKgSuVe2OaxYyKZAA1Ft-1" source="GKgSuVe2OaxYyKZAA1Ft-4" target="GKgSuVe2OaxYyKZAA1Ft-17">
          <mxGeometry width="50" height="50" relative="1" as="geometry">
            <mxPoint x="220" y="230" as="sourcePoint" />
            <mxPoint x="300" y="159" as="targetPoint" />
          </mxGeometry>
        </mxCell>
        <mxCell id="GKgSuVe2OaxYyKZAA1Ft-24" style="edgeStyle=orthogonalEdgeStyle;rounded=0;orthogonalLoop=1;jettySize=auto;html=1;entryX=0;entryY=0.5;entryDx=0;entryDy=0;endArrow=none;endFill=0;" edge="1" parent="GKgSuVe2OaxYyKZAA1Ft-1" target="GKgSuVe2OaxYyKZAA1Ft-13">
          <mxGeometry relative="1" as="geometry">
            <Array as="points">
              <mxPoint x="480" y="119" />
            </Array>
            <mxPoint x="480" y="184" as="sourcePoint" />
          </mxGeometry>
        </mxCell>
        <mxCell id="GKgSuVe2OaxYyKZAA1Ft-25" style="edgeStyle=orthogonalEdgeStyle;rounded=0;orthogonalLoop=1;jettySize=auto;html=1;entryX=0.5;entryY=1;entryDx=0;entryDy=0;endArrow=classic;endFill=1;" edge="1" parent="GKgSuVe2OaxYyKZAA1Ft-1" source="GKgSuVe2OaxYyKZAA1Ft-26" target="GKgSuVe2OaxYyKZAA1Ft-15">
          <mxGeometry relative="1" as="geometry" />
        </mxCell>
        <mxCell id="GKgSuVe2OaxYyKZAA1Ft-26" value="ResponseDto" style="swimlane;fontStyle=2;align=center;verticalAlign=top;childLayout=stackLayout;horizontal=1;startSize=26;horizontalStack=0;resizeParent=1;resizeLast=0;collapsible=1;marginBottom=0;rounded=0;shadow=0;strokeWidth=1;" vertex="1" parent="GKgSuVe2OaxYyKZAA1Ft-1">
          <mxGeometry x="320" y="378" width="160" height="72" as="geometry">
            <mxRectangle x="230" y="140" width="160" height="26" as="alternateBounds" />
          </mxGeometry>
        </mxCell>
        <mxCell id="GKgSuVe2OaxYyKZAA1Ft-27" value="id" style="text;align=left;verticalAlign=top;spacingLeft=4;spacingRight=4;overflow=hidden;rotatable=0;points=[[0,0.5],[1,0.5]];portConstraint=eastwest;rounded=0;shadow=0;html=0;" vertex="1" parent="GKgSuVe2OaxYyKZAA1Ft-26">
          <mxGeometry y="26" width="160" height="26" as="geometry" />
        </mxCell>
        <mxCell id="hOAoJ5xywu6q5goRAdje-0" value="" style="line;html=1;strokeWidth=1;align=left;verticalAlign=middle;spacingTop=-1;spacingLeft=3;spacingRight=3;rotatable=0;labelPosition=right;points=[];portConstraint=eastwest;" vertex="1" parent="GKgSuVe2OaxYyKZAA1Ft-26">
          <mxGeometry y="52" width="160" height="8" as="geometry" />
        </mxCell>
        <mxCell id="GKgSuVe2OaxYyKZAA1Ft-31" style="edgeStyle=orthogonalEdgeStyle;rounded=0;orthogonalLoop=1;jettySize=auto;html=1;entryX=1.019;entryY=0.231;entryDx=0;entryDy=0;entryPerimeter=0;" edge="1" parent="GKgSuVe2OaxYyKZAA1Ft-1" source="GKgSuVe2OaxYyKZAA1Ft-21">
          <mxGeometry relative="1" as="geometry">
            <mxPoint x="483.03999999999996" y="419.0060000000001" as="targetPoint" />
          </mxGeometry>
        </mxCell>
      </root>
    </mxGraphModel>
  </diagram>
  <diagram name="update procedure" id="SLuAHGe_HSwsOBs5ltfy">
    <mxGraphModel dx="1121" dy="608" grid="0" gridSize="1" guides="1" tooltips="1" connect="1" arrows="1" fold="1" page="1" pageScale="1" pageWidth="827" pageHeight="1169" background="none" math="0" shadow="0">
      <root>
        <mxCell id="8Ef0O_O_FoOTp6aVKjbj-0" />
        <mxCell id="8Ef0O_O_FoOTp6aVKjbj-1" parent="8Ef0O_O_FoOTp6aVKjbj-0" />
        <mxCell id="8Ef0O_O_FoOTp6aVKjbj-2" value="RequestDto" style="swimlane;fontStyle=2;align=center;verticalAlign=top;childLayout=stackLayout;horizontal=1;startSize=26;horizontalStack=0;resizeParent=1;resizeLast=0;collapsible=1;marginBottom=0;rounded=0;shadow=0;strokeWidth=1;" vertex="1" parent="8Ef0O_O_FoOTp6aVKjbj-1">
          <mxGeometry x="40" y="80" width="160" height="494" as="geometry">
            <mxRectangle x="230" y="140" width="160" height="26" as="alternateBounds" />
          </mxGeometry>
        </mxCell>
        <mxCell id="8Ef0O_O_FoOTp6aVKjbj-3" value="keyword" style="text;align=left;verticalAlign=top;spacingLeft=4;spacingRight=4;overflow=hidden;rotatable=0;points=[[0,0.5],[1,0.5]];portConstraint=eastwest;" vertex="1" parent="8Ef0O_O_FoOTp6aVKjbj-2">
          <mxGeometry y="26" width="160" height="26" as="geometry" />
        </mxCell>
        <mxCell id="8Ef0O_O_FoOTp6aVKjbj-4" value="code" style="text;align=left;verticalAlign=top;spacingLeft=4;spacingRight=4;overflow=hidden;rotatable=0;points=[[0,0.5],[1,0.5]];portConstraint=eastwest;rounded=0;shadow=0;html=0;" vertex="1" parent="8Ef0O_O_FoOTp6aVKjbj-2">
          <mxGeometry y="52" width="160" height="26" as="geometry" />
        </mxCell>
        <mxCell id="8Ef0O_O_FoOTp6aVKjbj-5" value="level" style="text;align=left;verticalAlign=top;spacingLeft=4;spacingRight=4;overflow=hidden;rotatable=0;points=[[0,0.5],[1,0.5]];portConstraint=eastwest;rounded=0;shadow=0;html=0;" vertex="1" parent="8Ef0O_O_FoOTp6aVKjbj-2">
          <mxGeometry y="78" width="160" height="26" as="geometry" />
        </mxCell>
        <mxCell id="8Ef0O_O_FoOTp6aVKjbj-6" value="agencyLevel" style="text;align=left;verticalAlign=top;spacingLeft=4;spacingRight=4;overflow=hidden;rotatable=0;points=[[0,0.5],[1,0.5]];portConstraint=eastwest;rounded=0;shadow=0;html=0;" vertex="1" parent="8Ef0O_O_FoOTp6aVKjbj-2">
          <mxGeometry y="104" width="160" height="26" as="geometry" />
        </mxCell>
        <mxCell id="8Ef0O_O_FoOTp6aVKjbj-7" value="sector" style="text;align=left;verticalAlign=top;spacingLeft=4;spacingRight=4;overflow=hidden;rotatable=0;points=[[0,0.5],[1,0.5]];portConstraint=eastwest;rounded=0;shadow=0;html=0;" vertex="1" parent="8Ef0O_O_FoOTp6aVKjbj-2">
          <mxGeometry y="130" width="160" height="26" as="geometry" />
        </mxCell>
        <mxCell id="8Ef0O_O_FoOTp6aVKjbj-8" value="dossierQuantity" style="text;align=left;verticalAlign=top;spacingLeft=4;spacingRight=4;overflow=hidden;rotatable=0;points=[[0,0.5],[1,0.5]];portConstraint=eastwest;rounded=0;shadow=0;html=0;" vertex="1" parent="8Ef0O_O_FoOTp6aVKjbj-2">
          <mxGeometry y="156" width="160" height="26" as="geometry" />
        </mxCell>
        <mxCell id="8Ef0O_O_FoOTp6aVKjbj-9" value="paymentMethod" style="text;align=left;verticalAlign=top;spacingLeft=4;spacingRight=4;overflow=hidden;rotatable=0;points=[[0,0.5],[1,0.5]];portConstraint=eastwest;rounded=0;shadow=0;html=0;" vertex="1" parent="8Ef0O_O_FoOTp6aVKjbj-2">
          <mxGeometry y="182" width="160" height="26" as="geometry" />
        </mxCell>
        <mxCell id="8Ef0O_O_FoOTp6aVKjbj-10" value="translate" style="text;align=left;verticalAlign=top;spacingLeft=4;spacingRight=4;overflow=hidden;rotatable=0;points=[[0,0.5],[1,0.5]];portConstraint=eastwest;rounded=0;shadow=0;html=0;" vertex="1" parent="8Ef0O_O_FoOTp6aVKjbj-2">
          <mxGeometry y="208" width="160" height="26" as="geometry" />
        </mxCell>
        <mxCell id="8Ef0O_O_FoOTp6aVKjbj-11" value="agency" style="text;align=left;verticalAlign=top;spacingLeft=4;spacingRight=4;overflow=hidden;rotatable=0;points=[[0,0.5],[1,0.5]];portConstraint=eastwest;rounded=0;shadow=0;html=0;" vertex="1" parent="8Ef0O_O_FoOTp6aVKjbj-2">
          <mxGeometry y="234" width="160" height="26" as="geometry" />
        </mxCell>
        <mxCell id="8Ef0O_O_FoOTp6aVKjbj-12" value="startDate" style="text;align=left;verticalAlign=top;spacingLeft=4;spacingRight=4;overflow=hidden;rotatable=0;points=[[0,0.5],[1,0.5]];portConstraint=eastwest;rounded=0;shadow=0;html=0;" vertex="1" parent="8Ef0O_O_FoOTp6aVKjbj-2">
          <mxGeometry y="260" width="160" height="26" as="geometry" />
        </mxCell>
        <mxCell id="8Ef0O_O_FoOTp6aVKjbj-13" value="endDate" style="text;align=left;verticalAlign=top;spacingLeft=4;spacingRight=4;overflow=hidden;rotatable=0;points=[[0,0.5],[1,0.5]];portConstraint=eastwest;rounded=0;shadow=0;html=0;" vertex="1" parent="8Ef0O_O_FoOTp6aVKjbj-2">
          <mxGeometry y="286" width="160" height="26" as="geometry" />
        </mxCell>
        <mxCell id="8Ef0O_O_FoOTp6aVKjbj-14" value="status" style="text;align=left;verticalAlign=top;spacingLeft=4;spacingRight=4;overflow=hidden;rotatable=0;points=[[0,0.5],[1,0.5]];portConstraint=eastwest;rounded=0;shadow=0;html=0;" vertex="1" parent="8Ef0O_O_FoOTp6aVKjbj-2">
          <mxGeometry y="312" width="160" height="26" as="geometry" />
        </mxCell>
        <mxCell id="8Ef0O_O_FoOTp6aVKjbj-15" value="applyMethod" style="text;align=left;verticalAlign=top;spacingLeft=4;spacingRight=4;overflow=hidden;rotatable=0;points=[[0,0.5],[1,0.5]];portConstraint=eastwest;rounded=0;shadow=0;html=0;" vertex="1" parent="8Ef0O_O_FoOTp6aVKjbj-2">
          <mxGeometry y="338" width="160" height="26" as="geometry" />
        </mxCell>
        <mxCell id="8Ef0O_O_FoOTp6aVKjbj-16" value="case" style="text;align=left;verticalAlign=top;spacingLeft=4;spacingRight=4;overflow=hidden;rotatable=0;points=[[0,0.5],[1,0.5]];portConstraint=eastwest;rounded=0;shadow=0;html=0;" vertex="1" parent="8Ef0O_O_FoOTp6aVKjbj-2">
          <mxGeometry y="364" width="160" height="26" as="geometry" />
        </mxCell>
        <mxCell id="8Ef0O_O_FoOTp6aVKjbj-17" value="implementer" style="text;align=left;verticalAlign=top;spacingLeft=4;spacingRight=4;overflow=hidden;rotatable=0;points=[[0,0.5],[1,0.5]];portConstraint=eastwest;rounded=0;shadow=0;html=0;" vertex="1" parent="8Ef0O_O_FoOTp6aVKjbj-2">
          <mxGeometry y="390" width="160" height="26" as="geometry" />
        </mxCell>
        <mxCell id="8Ef0O_O_FoOTp6aVKjbj-18" value="children" style="text;align=left;verticalAlign=top;spacingLeft=4;spacingRight=4;overflow=hidden;rotatable=0;points=[[0,0.5],[1,0.5]];portConstraint=eastwest;rounded=0;shadow=0;html=0;" vertex="1" parent="8Ef0O_O_FoOTp6aVKjbj-2">
          <mxGeometry y="416" width="160" height="26" as="geometry" />
        </mxCell>
        <mxCell id="8Ef0O_O_FoOTp6aVKjbj-19" value="agencyIssued" style="text;align=left;verticalAlign=top;spacingLeft=4;spacingRight=4;overflow=hidden;rotatable=0;points=[[0,0.5],[1,0.5]];portConstraint=eastwest;rounded=0;shadow=0;html=0;" vertex="1" parent="8Ef0O_O_FoOTp6aVKjbj-2">
          <mxGeometry y="442" width="160" height="26" as="geometry" />
        </mxCell>
        <mxCell id="8Ef0O_O_FoOTp6aVKjbj-20" value="" style="line;html=1;strokeWidth=1;align=left;verticalAlign=middle;spacingTop=-1;spacingLeft=3;spacingRight=3;rotatable=0;labelPosition=right;points=[];portConstraint=eastwest;" vertex="1" parent="8Ef0O_O_FoOTp6aVKjbj-2">
          <mxGeometry y="468" width="160" height="8" as="geometry" />
        </mxCell>
        <mxCell id="8Ef0O_O_FoOTp6aVKjbj-21" style="edgeStyle=orthogonalEdgeStyle;rounded=0;orthogonalLoop=1;jettySize=auto;html=1;entryX=0.5;entryY=0;entryDx=0;entryDy=0;" edge="1" parent="8Ef0O_O_FoOTp6aVKjbj-1" source="8Ef0O_O_FoOTp6aVKjbj-22" target="8Ef0O_O_FoOTp6aVKjbj-34">
          <mxGeometry relative="1" as="geometry" />
        </mxCell>
        <mxCell id="8Ef0O_O_FoOTp6aVKjbj-22" value="&lt;&lt;interface&gt;&gt;&#xa;Repository" style="swimlane;fontStyle=0;align=center;verticalAlign=top;childLayout=stackLayout;horizontal=1;startSize=41;horizontalStack=0;resizeParent=1;resizeLast=0;collapsible=1;marginBottom=0;rounded=0;shadow=0;strokeWidth=1;" vertex="1" parent="8Ef0O_O_FoOTp6aVKjbj-1">
          <mxGeometry x="600" y="226" width="160" height="90" as="geometry">
            <mxRectangle x="590" y="380" width="160" height="26" as="alternateBounds" />
          </mxGeometry>
        </mxCell>
        <mxCell id="8Ef0O_O_FoOTp6aVKjbj-23" value="update (Document)" style="text;align=left;verticalAlign=top;spacingLeft=4;spacingRight=4;overflow=hidden;rotatable=0;points=[[0,0.5],[1,0.5]];portConstraint=eastwest;" vertex="1" parent="8Ef0O_O_FoOTp6aVKjbj-22">
          <mxGeometry y="41" width="160" height="34" as="geometry" />
        </mxCell>
        <mxCell id="8Ef0O_O_FoOTp6aVKjbj-24" value="" style="line;html=1;strokeWidth=1;align=left;verticalAlign=middle;spacingTop=-1;spacingLeft=3;spacingRight=3;rotatable=0;labelPosition=right;points=[];portConstraint=eastwest;" vertex="1" parent="8Ef0O_O_FoOTp6aVKjbj-22">
          <mxGeometry y="75" width="160" height="8" as="geometry" />
        </mxCell>
        <mxCell id="8Ef0O_O_FoOTp6aVKjbj-25" style="edgeStyle=orthogonalEdgeStyle;rounded=0;orthogonalLoop=1;jettySize=auto;html=1;entryX=0.5;entryY=0;entryDx=0;entryDy=0;endArrow=none;endFill=0;strokeColor=#000000;" edge="1" parent="8Ef0O_O_FoOTp6aVKjbj-1" source="8Ef0O_O_FoOTp6aVKjbj-26" target="8Ef0O_O_FoOTp6aVKjbj-22">
          <mxGeometry relative="1" as="geometry" />
        </mxCell>
        <mxCell id="8Ef0O_O_FoOTp6aVKjbj-26" value="Service" style="swimlane;fontStyle=0;align=center;verticalAlign=top;childLayout=stackLayout;horizontal=1;startSize=26;horizontalStack=0;resizeParent=1;resizeLast=0;collapsible=1;marginBottom=0;rounded=0;shadow=0;strokeWidth=1;" vertex="1" parent="8Ef0O_O_FoOTp6aVKjbj-1">
          <mxGeometry x="600" y="80" width="160" height="70" as="geometry">
            <mxRectangle x="340" y="380" width="170" height="26" as="alternateBounds" />
          </mxGeometry>
        </mxCell>
        <mxCell id="8Ef0O_O_FoOTp6aVKjbj-27" value="repository" style="text;align=left;verticalAlign=top;spacingLeft=4;spacingRight=4;overflow=hidden;rotatable=0;points=[[0,0.5],[1,0.5]];portConstraint=eastwest;" vertex="1" parent="8Ef0O_O_FoOTp6aVKjbj-26">
          <mxGeometry y="26" width="160" height="26" as="geometry" />
        </mxCell>
        <mxCell id="8Ef0O_O_FoOTp6aVKjbj-28" value="" style="line;html=1;strokeWidth=1;align=left;verticalAlign=middle;spacingTop=-1;spacingLeft=3;spacingRight=3;rotatable=0;labelPosition=right;points=[];portConstraint=eastwest;" vertex="1" parent="8Ef0O_O_FoOTp6aVKjbj-26">
          <mxGeometry y="52" width="160" height="8" as="geometry" />
        </mxCell>
        <mxCell id="8Ef0O_O_FoOTp6aVKjbj-29" value="Controller" style="swimlane;fontStyle=0;align=center;verticalAlign=top;childLayout=stackLayout;horizontal=1;startSize=26;horizontalStack=0;resizeParent=1;resizeLast=0;collapsible=1;marginBottom=0;rounded=0;shadow=0;strokeWidth=1;" vertex="1" parent="8Ef0O_O_FoOTp6aVKjbj-1">
          <mxGeometry x="320" y="80" width="160" height="120" as="geometry">
            <mxRectangle x="550" y="140" width="160" height="26" as="alternateBounds" />
          </mxGeometry>
        </mxCell>
        <mxCell id="8Ef0O_O_FoOTp6aVKjbj-30" value="logger" style="text;align=left;verticalAlign=top;spacingLeft=4;spacingRight=4;overflow=hidden;rotatable=0;points=[[0,0.5],[1,0.5]];portConstraint=eastwest;" vertex="1" parent="8Ef0O_O_FoOTp6aVKjbj-29">
          <mxGeometry y="26" width="160" height="26" as="geometry" />
        </mxCell>
        <mxCell id="8Ef0O_O_FoOTp6aVKjbj-31" value="service" style="text;align=left;verticalAlign=top;spacingLeft=4;spacingRight=4;overflow=hidden;rotatable=0;points=[[0,0.5],[1,0.5]];portConstraint=eastwest;rounded=0;shadow=0;html=0;" vertex="1" parent="8Ef0O_O_FoOTp6aVKjbj-29">
          <mxGeometry y="52" width="160" height="26" as="geometry" />
        </mxCell>
        <mxCell id="8Ef0O_O_FoOTp6aVKjbj-32" value="" style="line;html=1;strokeWidth=1;align=left;verticalAlign=middle;spacingTop=-1;spacingLeft=3;spacingRight=3;rotatable=0;labelPosition=right;points=[];portConstraint=eastwest;" vertex="1" parent="8Ef0O_O_FoOTp6aVKjbj-29">
          <mxGeometry y="78" width="160" height="8" as="geometry" />
        </mxCell>
        <mxCell id="8Ef0O_O_FoOTp6aVKjbj-33" value="update (RequestDto)" style="text;align=left;verticalAlign=top;spacingLeft=4;spacingRight=4;overflow=hidden;rotatable=0;points=[[0,0.5],[1,0.5]];portConstraint=eastwest;" vertex="1" parent="8Ef0O_O_FoOTp6aVKjbj-29">
          <mxGeometry y="86" width="160" height="26" as="geometry" />
        </mxCell>
        <mxCell id="8Ef0O_O_FoOTp6aVKjbj-34" value="Document" style="swimlane;fontStyle=0;align=center;verticalAlign=top;childLayout=stackLayout;horizontal=1;startSize=26;horizontalStack=0;resizeParent=1;resizeLast=0;collapsible=1;marginBottom=0;rounded=0;shadow=0;strokeWidth=1;" vertex="1" parent="8Ef0O_O_FoOTp6aVKjbj-1">
          <mxGeometry x="600" y="380" width="160" height="70" as="geometry">
            <mxRectangle x="340" y="380" width="170" height="26" as="alternateBounds" />
          </mxGeometry>
        </mxCell>
        <mxCell id="8Ef0O_O_FoOTp6aVKjbj-35" value="procedure" style="text;align=left;verticalAlign=top;spacingLeft=4;spacingRight=4;overflow=hidden;rotatable=0;points=[[0,0.5],[1,0.5]];portConstraint=eastwest;" vertex="1" parent="8Ef0O_O_FoOTp6aVKjbj-34">
          <mxGeometry y="26" width="160" height="26" as="geometry" />
        </mxCell>
        <mxCell id="8Ef0O_O_FoOTp6aVKjbj-36" value="" style="line;html=1;strokeWidth=1;align=left;verticalAlign=middle;spacingTop=-1;spacingLeft=3;spacingRight=3;rotatable=0;labelPosition=right;points=[];portConstraint=eastwest;" vertex="1" parent="8Ef0O_O_FoOTp6aVKjbj-34">
          <mxGeometry y="52" width="160" height="8" as="geometry" />
        </mxCell>
        <mxCell id="8Ef0O_O_FoOTp6aVKjbj-37" value="" style="endArrow=none;html=1;exitX=1.006;exitY=-0.154;exitDx=0;exitDy=0;entryX=-0.006;entryY=-0.154;entryDx=0;entryDy=0;exitPerimeter=0;entryPerimeter=0;" edge="1" parent="8Ef0O_O_FoOTp6aVKjbj-1" source="8Ef0O_O_FoOTp6aVKjbj-4" target="8Ef0O_O_FoOTp6aVKjbj-31">
          <mxGeometry width="50" height="50" relative="1" as="geometry">
            <mxPoint x="220" y="230" as="sourcePoint" />
            <mxPoint x="300" y="159" as="targetPoint" />
          </mxGeometry>
        </mxCell>
        <mxCell id="8Ef0O_O_FoOTp6aVKjbj-38" style="edgeStyle=orthogonalEdgeStyle;rounded=0;orthogonalLoop=1;jettySize=auto;html=1;entryX=0;entryY=0.5;entryDx=0;entryDy=0;endArrow=none;endFill=0;" edge="1" parent="8Ef0O_O_FoOTp6aVKjbj-1" target="8Ef0O_O_FoOTp6aVKjbj-27">
          <mxGeometry relative="1" as="geometry">
            <Array as="points">
              <mxPoint x="480" y="119" />
            </Array>
            <mxPoint x="480" y="184" as="sourcePoint" />
          </mxGeometry>
        </mxCell>
        <mxCell id="8Ef0O_O_FoOTp6aVKjbj-39" style="edgeStyle=orthogonalEdgeStyle;rounded=0;orthogonalLoop=1;jettySize=auto;html=1;entryX=0.5;entryY=1;entryDx=0;entryDy=0;endArrow=classic;endFill=1;" edge="1" parent="8Ef0O_O_FoOTp6aVKjbj-1" source="8Ef0O_O_FoOTp6aVKjbj-40" target="8Ef0O_O_FoOTp6aVKjbj-29">
          <mxGeometry relative="1" as="geometry" />
        </mxCell>
        <mxCell id="8Ef0O_O_FoOTp6aVKjbj-40" value="ResponseDto" style="swimlane;fontStyle=2;align=center;verticalAlign=top;childLayout=stackLayout;horizontal=1;startSize=26;horizontalStack=0;resizeParent=1;resizeLast=0;collapsible=1;marginBottom=0;rounded=0;shadow=0;strokeWidth=1;" vertex="1" parent="8Ef0O_O_FoOTp6aVKjbj-1">
          <mxGeometry x="320" y="378" width="160" height="72" as="geometry">
            <mxRectangle x="230" y="140" width="160" height="26" as="alternateBounds" />
          </mxGeometry>
        </mxCell>
        <mxCell id="8Ef0O_O_FoOTp6aVKjbj-41" value="affectedRows" style="text;align=left;verticalAlign=top;spacingLeft=4;spacingRight=4;overflow=hidden;rotatable=0;points=[[0,0.5],[1,0.5]];portConstraint=eastwest;rounded=0;shadow=0;html=0;" vertex="1" parent="8Ef0O_O_FoOTp6aVKjbj-40">
          <mxGeometry y="26" width="160" height="26" as="geometry" />
        </mxCell>
        <mxCell id="8Ef0O_O_FoOTp6aVKjbj-42" value="" style="line;html=1;strokeWidth=1;align=left;verticalAlign=middle;spacingTop=-1;spacingLeft=3;spacingRight=3;rotatable=0;labelPosition=right;points=[];portConstraint=eastwest;" vertex="1" parent="8Ef0O_O_FoOTp6aVKjbj-40">
          <mxGeometry y="52" width="160" height="8" as="geometry" />
        </mxCell>
        <mxCell id="8Ef0O_O_FoOTp6aVKjbj-43" style="edgeStyle=orthogonalEdgeStyle;rounded=0;orthogonalLoop=1;jettySize=auto;html=1;entryX=1.019;entryY=0.231;entryDx=0;entryDy=0;entryPerimeter=0;" edge="1" parent="8Ef0O_O_FoOTp6aVKjbj-1" source="8Ef0O_O_FoOTp6aVKjbj-35">
          <mxGeometry relative="1" as="geometry">
            <mxPoint x="483.03999999999996" y="419.0060000000001" as="targetPoint" />
          </mxGeometry>
        </mxCell>
      </root>
    </mxGraphModel>
  </diagram>
  <diagram name="delete procedure" id="nZAKbKG_EsMNsiixs17s">
    <mxGraphModel dx="1121" dy="608" grid="0" gridSize="1" guides="1" tooltips="1" connect="1" arrows="1" fold="1" page="1" pageScale="1" pageWidth="827" pageHeight="1169" background="none" math="0" shadow="0">
      <root>
        <mxCell id="VP_xC7hhfJoA3Jq_MLKt-0" />
        <mxCell id="VP_xC7hhfJoA3Jq_MLKt-1" parent="VP_xC7hhfJoA3Jq_MLKt-0" />
        <mxCell id="VP_xC7hhfJoA3Jq_MLKt-2" value="RequestDto" style="swimlane;fontStyle=2;align=center;verticalAlign=top;childLayout=stackLayout;horizontal=1;startSize=26;horizontalStack=0;resizeParent=1;resizeLast=0;collapsible=1;marginBottom=0;rounded=0;shadow=0;strokeWidth=1;" vertex="1" parent="VP_xC7hhfJoA3Jq_MLKt-1">
          <mxGeometry x="40" y="80" width="160" height="58" as="geometry">
            <mxRectangle x="230" y="140" width="160" height="26" as="alternateBounds" />
          </mxGeometry>
        </mxCell>
        <mxCell id="VP_xC7hhfJoA3Jq_MLKt-3" value="id" style="text;align=left;verticalAlign=top;spacingLeft=4;spacingRight=4;overflow=hidden;rotatable=0;points=[[0,0.5],[1,0.5]];portConstraint=eastwest;rounded=0;shadow=0;html=0;" vertex="1" parent="VP_xC7hhfJoA3Jq_MLKt-2">
          <mxGeometry y="26" width="160" height="26" as="geometry" />
        </mxCell>
        <mxCell id="VP_xC7hhfJoA3Jq_MLKt-4" value="&lt;&lt;interface&gt;&gt;&#xa;Repository" style="swimlane;fontStyle=0;align=center;verticalAlign=top;childLayout=stackLayout;horizontal=1;startSize=41;horizontalStack=0;resizeParent=1;resizeLast=0;collapsible=1;marginBottom=0;rounded=0;shadow=0;strokeWidth=1;" vertex="1" parent="VP_xC7hhfJoA3Jq_MLKt-1">
          <mxGeometry x="600" y="350" width="160" height="90" as="geometry">
            <mxRectangle x="590" y="380" width="160" height="26" as="alternateBounds" />
          </mxGeometry>
        </mxCell>
        <mxCell id="VP_xC7hhfJoA3Jq_MLKt-5" value="procedure (Document)" style="text;align=left;verticalAlign=top;spacingLeft=4;spacingRight=4;overflow=hidden;rotatable=0;points=[[0,0.5],[1,0.5]];portConstraint=eastwest;" vertex="1" parent="VP_xC7hhfJoA3Jq_MLKt-4">
          <mxGeometry y="41" width="160" height="34" as="geometry" />
        </mxCell>
        <mxCell id="VP_xC7hhfJoA3Jq_MLKt-6" value="" style="line;html=1;strokeWidth=1;align=left;verticalAlign=middle;spacingTop=-1;spacingLeft=3;spacingRight=3;rotatable=0;labelPosition=right;points=[];portConstraint=eastwest;" vertex="1" parent="VP_xC7hhfJoA3Jq_MLKt-4">
          <mxGeometry y="75" width="160" height="8" as="geometry" />
        </mxCell>
        <mxCell id="VP_xC7hhfJoA3Jq_MLKt-7" style="edgeStyle=orthogonalEdgeStyle;rounded=0;orthogonalLoop=1;jettySize=auto;html=1;entryX=0.5;entryY=0;entryDx=0;entryDy=0;endArrow=none;endFill=0;strokeColor=#000000;" edge="1" parent="VP_xC7hhfJoA3Jq_MLKt-1" source="VP_xC7hhfJoA3Jq_MLKt-8" target="VP_xC7hhfJoA3Jq_MLKt-4">
          <mxGeometry relative="1" as="geometry" />
        </mxCell>
        <mxCell id="VP_xC7hhfJoA3Jq_MLKt-8" value="Service" style="swimlane;fontStyle=0;align=center;verticalAlign=top;childLayout=stackLayout;horizontal=1;startSize=26;horizontalStack=0;resizeParent=1;resizeLast=0;collapsible=1;marginBottom=0;rounded=0;shadow=0;strokeWidth=1;" vertex="1" parent="VP_xC7hhfJoA3Jq_MLKt-1">
          <mxGeometry x="600" y="80" width="160" height="70" as="geometry">
            <mxRectangle x="340" y="380" width="170" height="26" as="alternateBounds" />
          </mxGeometry>
        </mxCell>
        <mxCell id="VP_xC7hhfJoA3Jq_MLKt-9" value="repository" style="text;align=left;verticalAlign=top;spacingLeft=4;spacingRight=4;overflow=hidden;rotatable=0;points=[[0,0.5],[1,0.5]];portConstraint=eastwest;" vertex="1" parent="VP_xC7hhfJoA3Jq_MLKt-8">
          <mxGeometry y="26" width="160" height="26" as="geometry" />
        </mxCell>
        <mxCell id="VP_xC7hhfJoA3Jq_MLKt-10" value="" style="line;html=1;strokeWidth=1;align=left;verticalAlign=middle;spacingTop=-1;spacingLeft=3;spacingRight=3;rotatable=0;labelPosition=right;points=[];portConstraint=eastwest;" vertex="1" parent="VP_xC7hhfJoA3Jq_MLKt-8">
          <mxGeometry y="52" width="160" height="8" as="geometry" />
        </mxCell>
        <mxCell id="VP_xC7hhfJoA3Jq_MLKt-11" value="Controller" style="swimlane;fontStyle=0;align=center;verticalAlign=top;childLayout=stackLayout;horizontal=1;startSize=26;horizontalStack=0;resizeParent=1;resizeLast=0;collapsible=1;marginBottom=0;rounded=0;shadow=0;strokeWidth=1;" vertex="1" parent="VP_xC7hhfJoA3Jq_MLKt-1">
          <mxGeometry x="320" y="80" width="160" height="120" as="geometry">
            <mxRectangle x="550" y="140" width="160" height="26" as="alternateBounds" />
          </mxGeometry>
        </mxCell>
        <mxCell id="VP_xC7hhfJoA3Jq_MLKt-12" value="logger" style="text;align=left;verticalAlign=top;spacingLeft=4;spacingRight=4;overflow=hidden;rotatable=0;points=[[0,0.5],[1,0.5]];portConstraint=eastwest;" vertex="1" parent="VP_xC7hhfJoA3Jq_MLKt-11">
          <mxGeometry y="26" width="160" height="26" as="geometry" />
        </mxCell>
        <mxCell id="VP_xC7hhfJoA3Jq_MLKt-13" value="service" style="text;align=left;verticalAlign=top;spacingLeft=4;spacingRight=4;overflow=hidden;rotatable=0;points=[[0,0.5],[1,0.5]];portConstraint=eastwest;rounded=0;shadow=0;html=0;" vertex="1" parent="VP_xC7hhfJoA3Jq_MLKt-11">
          <mxGeometry y="52" width="160" height="26" as="geometry" />
        </mxCell>
        <mxCell id="VP_xC7hhfJoA3Jq_MLKt-14" value="" style="line;html=1;strokeWidth=1;align=left;verticalAlign=middle;spacingTop=-1;spacingLeft=3;spacingRight=3;rotatable=0;labelPosition=right;points=[];portConstraint=eastwest;" vertex="1" parent="VP_xC7hhfJoA3Jq_MLKt-11">
          <mxGeometry y="78" width="160" height="8" as="geometry" />
        </mxCell>
        <mxCell id="VP_xC7hhfJoA3Jq_MLKt-15" value="delete (RequestDto)" style="text;align=left;verticalAlign=top;spacingLeft=4;spacingRight=4;overflow=hidden;rotatable=0;points=[[0,0.5],[1,0.5]];portConstraint=eastwest;" vertex="1" parent="VP_xC7hhfJoA3Jq_MLKt-11">
          <mxGeometry y="86" width="160" height="26" as="geometry" />
        </mxCell>
        <mxCell id="VP_xC7hhfJoA3Jq_MLKt-16" style="edgeStyle=orthogonalEdgeStyle;rounded=0;orthogonalLoop=1;jettySize=auto;html=1;entryX=0.5;entryY=1;entryDx=0;entryDy=0;" edge="1" parent="VP_xC7hhfJoA3Jq_MLKt-1" source="VP_xC7hhfJoA3Jq_MLKt-17" target="VP_xC7hhfJoA3Jq_MLKt-21">
          <mxGeometry relative="1" as="geometry" />
        </mxCell>
        <mxCell id="VP_xC7hhfJoA3Jq_MLKt-17" value="Document" style="swimlane;fontStyle=0;align=center;verticalAlign=top;childLayout=stackLayout;horizontal=1;startSize=26;horizontalStack=0;resizeParent=1;resizeLast=0;collapsible=1;marginBottom=0;rounded=0;shadow=0;strokeWidth=1;" vertex="1" parent="VP_xC7hhfJoA3Jq_MLKt-1">
          <mxGeometry x="320" y="370" width="160" height="70" as="geometry">
            <mxRectangle x="340" y="380" width="170" height="26" as="alternateBounds" />
          </mxGeometry>
        </mxCell>
        <mxCell id="VP_xC7hhfJoA3Jq_MLKt-18" value="procedure" style="text;align=left;verticalAlign=top;spacingLeft=4;spacingRight=4;overflow=hidden;rotatable=0;points=[[0,0.5],[1,0.5]];portConstraint=eastwest;" vertex="1" parent="VP_xC7hhfJoA3Jq_MLKt-17">
          <mxGeometry y="26" width="160" height="26" as="geometry" />
        </mxCell>
        <mxCell id="VP_xC7hhfJoA3Jq_MLKt-19" value="" style="line;html=1;strokeWidth=1;align=left;verticalAlign=middle;spacingTop=-1;spacingLeft=3;spacingRight=3;rotatable=0;labelPosition=right;points=[];portConstraint=eastwest;" vertex="1" parent="VP_xC7hhfJoA3Jq_MLKt-17">
          <mxGeometry y="52" width="160" height="8" as="geometry" />
        </mxCell>
        <mxCell id="VP_xC7hhfJoA3Jq_MLKt-20" style="edgeStyle=orthogonalEdgeStyle;rounded=0;orthogonalLoop=1;jettySize=auto;html=1;entryX=0.5;entryY=1;entryDx=0;entryDy=0;" edge="1" parent="VP_xC7hhfJoA3Jq_MLKt-1" source="VP_xC7hhfJoA3Jq_MLKt-21" target="VP_xC7hhfJoA3Jq_MLKt-11">
          <mxGeometry relative="1" as="geometry" />
        </mxCell>
        <mxCell id="VP_xC7hhfJoA3Jq_MLKt-21" value="ResponseDto" style="swimlane;fontStyle=0;align=center;verticalAlign=top;childLayout=stackLayout;horizontal=1;startSize=26;horizontalStack=0;resizeParent=1;resizeLast=0;collapsible=1;marginBottom=0;rounded=0;shadow=0;strokeWidth=1;" vertex="1" parent="VP_xC7hhfJoA3Jq_MLKt-1">
          <mxGeometry x="320" y="250" width="160" height="70" as="geometry">
            <mxRectangle x="340" y="380" width="170" height="26" as="alternateBounds" />
          </mxGeometry>
        </mxCell>
        <mxCell id="VP_xC7hhfJoA3Jq_MLKt-22" value="affectedRows" style="text;align=left;verticalAlign=top;spacingLeft=4;spacingRight=4;overflow=hidden;rotatable=0;points=[[0,0.5],[1,0.5]];portConstraint=eastwest;" vertex="1" parent="VP_xC7hhfJoA3Jq_MLKt-21">
          <mxGeometry y="26" width="160" height="26" as="geometry" />
        </mxCell>
        <mxCell id="VP_xC7hhfJoA3Jq_MLKt-23" value="" style="line;html=1;strokeWidth=1;align=left;verticalAlign=middle;spacingTop=-1;spacingLeft=3;spacingRight=3;rotatable=0;labelPosition=right;points=[];portConstraint=eastwest;" vertex="1" parent="VP_xC7hhfJoA3Jq_MLKt-21">
          <mxGeometry y="52" width="160" height="8" as="geometry" />
        </mxCell>
        <mxCell id="VP_xC7hhfJoA3Jq_MLKt-24" value="" style="endArrow=none;html=1;exitX=1.013;exitY=0.846;exitDx=0;exitDy=0;entryX=-0.006;entryY=-0.154;entryDx=0;entryDy=0;exitPerimeter=0;entryPerimeter=0;" edge="1" parent="VP_xC7hhfJoA3Jq_MLKt-1" source="VP_xC7hhfJoA3Jq_MLKt-3" target="VP_xC7hhfJoA3Jq_MLKt-13">
          <mxGeometry width="50" height="50" relative="1" as="geometry">
            <mxPoint x="220" y="230" as="sourcePoint" />
            <mxPoint x="300" y="159" as="targetPoint" />
          </mxGeometry>
        </mxCell>
        <mxCell id="VP_xC7hhfJoA3Jq_MLKt-25" style="edgeStyle=orthogonalEdgeStyle;rounded=0;orthogonalLoop=1;jettySize=auto;html=1;entryX=1;entryY=0.5;entryDx=0;entryDy=0;endArrow=classic;endFill=1;strokeColor=#000000;" edge="1" parent="VP_xC7hhfJoA3Jq_MLKt-1" target="VP_xC7hhfJoA3Jq_MLKt-17">
          <mxGeometry relative="1" as="geometry">
            <mxPoint x="600" y="408" as="sourcePoint" />
            <Array as="points">
              <mxPoint x="600" y="405" />
            </Array>
          </mxGeometry>
        </mxCell>
        <mxCell id="VP_xC7hhfJoA3Jq_MLKt-26" style="edgeStyle=orthogonalEdgeStyle;rounded=0;orthogonalLoop=1;jettySize=auto;html=1;entryX=0;entryY=0.5;entryDx=0;entryDy=0;endArrow=none;endFill=0;" edge="1" parent="VP_xC7hhfJoA3Jq_MLKt-1" target="VP_xC7hhfJoA3Jq_MLKt-9">
          <mxGeometry relative="1" as="geometry">
            <Array as="points">
              <mxPoint x="480" y="119" />
            </Array>
            <mxPoint x="480" y="184" as="sourcePoint" />
          </mxGeometry>
        </mxCell>
      </root>
    </mxGraphModel>
  </diagram>
</mxfile>
